<mxfile host="app.diagrams.net" modified="2023-03-10T03:31:21.662Z" agent="5.0 (Windows NT 10.0; Win64; x64) AppleWebKit/537.36 (KHTML, like Gecko) Chrome/110.0.0.0 Safari/537.36 Edg/110.0.1587.63" etag="nXkKdY30hgXxmD2ms_sF" version="21.0.2" type="github">
  <diagram name="Page-1" id="KsJtNlf-tZ8jSHv4pbeJ">
    <mxGraphModel dx="1366" dy="5439" grid="1" gridSize="10" guides="1" tooltips="1" connect="1" arrows="1" fold="1" page="1" pageScale="1" pageWidth="3300" pageHeight="4681" math="0" shadow="0">
      <root>
        <mxCell id="0" />
        <mxCell id="1" parent="0" />
        <mxCell id="1S47sQh23CGtn13rSiRh-14" value="&lt;div align=&quot;left&quot; style=&quot;margin-left:0pt;&quot; dir=&quot;ltr&quot;&gt;&lt;table style=&quot;border:none;border-collapse:collapse;&quot;&gt;&lt;colgroup&gt;&lt;col width=&quot;28&quot;&gt;&lt;col width=&quot;28&quot;&gt;&lt;col width=&quot;28&quot;&gt;&lt;col width=&quot;28&quot;&gt;&lt;col width=&quot;28&quot;&gt;&lt;col width=&quot;28&quot;&gt;&lt;col width=&quot;28&quot;&gt;&lt;col width=&quot;28&quot;&gt;&lt;col width=&quot;28&quot;&gt;&lt;col width=&quot;28&quot;&gt;&lt;col width=&quot;28&quot;&gt;&lt;col width=&quot;28&quot;&gt;&lt;col width=&quot;28&quot;&gt;&lt;col width=&quot;28&quot;&gt;&lt;col width=&quot;28&quot;&gt;&lt;/colgroup&gt;&lt;tbody&gt;&lt;tr style=&quot;height:24.25pt&quot;&gt;&lt;td style=&quot;vertical-align:top;background-color:#ffeb84;padding:5pt 5pt 5pt 5pt;overflow:hidden;overflow-wrap:break-word;&quot;&gt;&lt;p style=&quot;line-height:1.38;margin-top:0pt;margin-bottom:0pt;&quot; dir=&quot;ltr&quot;&gt;&lt;/p&gt;&lt;/td&gt;&lt;td style=&quot;vertical-align:top;background-color:#ffeb84;padding:5pt 5pt 5pt 5pt;overflow:hidden;overflow-wrap:break-word;&quot;&gt;&lt;p style=&quot;line-height:1.38;margin-top:0pt;margin-bottom:0pt;&quot; dir=&quot;ltr&quot;&gt;&lt;span style=&quot;font-size: 11pt; font-family: Arial; background-color: transparent; font-variant-numeric: normal; font-variant-east-asian: normal; vertical-align: baseline;&quot;&gt;1&lt;/span&gt;&lt;/p&gt;&lt;/td&gt;&lt;td style=&quot;vertical-align:top;background-color:#ffeb84;padding:5pt 5pt 5pt 5pt;overflow:hidden;overflow-wrap:break-word;&quot;&gt;&lt;p style=&quot;line-height:1.38;margin-top:0pt;margin-bottom:0pt;&quot; dir=&quot;ltr&quot;&gt;&lt;span style=&quot;font-size: 11pt; font-family: Arial; background-color: transparent; font-variant-numeric: normal; font-variant-east-asian: normal; vertical-align: baseline;&quot;&gt;1&lt;/span&gt;&lt;/p&gt;&lt;/td&gt;&lt;td style=&quot;vertical-align:top;background-color:#ffeb84;padding:5pt 5pt 5pt 5pt;overflow:hidden;overflow-wrap:break-word;&quot;&gt;&lt;p style=&quot;line-height:1.38;margin-top:0pt;margin-bottom:0pt;&quot; dir=&quot;ltr&quot;&gt;&lt;span style=&quot;font-size: 11pt; font-family: Arial; background-color: transparent; font-variant-numeric: normal; font-variant-east-asian: normal; vertical-align: baseline;&quot;&gt;1&lt;/span&gt;&lt;/p&gt;&lt;/td&gt;&lt;td style=&quot;vertical-align:top;background-color:#ffeb84;padding:5pt 5pt 5pt 5pt;overflow:hidden;overflow-wrap:break-word;&quot;&gt;&lt;p style=&quot;line-height:1.38;margin-top:0pt;margin-bottom:0pt;&quot; dir=&quot;ltr&quot;&gt;&lt;span style=&quot;font-size: 11pt; font-family: Arial; background-color: transparent; font-variant-numeric: normal; font-variant-east-asian: normal; vertical-align: baseline;&quot;&gt;1&lt;/span&gt;&lt;/p&gt;&lt;/td&gt;&lt;td style=&quot;vertical-align:top;background-color:#ffeb84;padding:5pt 5pt 5pt 5pt;overflow:hidden;overflow-wrap:break-word;&quot;&gt;&lt;p style=&quot;line-height:1.38;margin-top:0pt;margin-bottom:0pt;&quot; dir=&quot;ltr&quot;&gt;&lt;span style=&quot;font-size: 11pt; font-family: Arial; background-color: transparent; font-variant-numeric: normal; font-variant-east-asian: normal; vertical-align: baseline;&quot;&gt;1&lt;/span&gt;&lt;/p&gt;&lt;/td&gt;&lt;td style=&quot;vertical-align:top;background-color:#ffeb84;padding:5pt 5pt 5pt 5pt;overflow:hidden;overflow-wrap:break-word;&quot;&gt;&lt;p style=&quot;line-height:1.38;margin-top:0pt;margin-bottom:0pt;&quot; dir=&quot;ltr&quot;&gt;&lt;span style=&quot;font-size: 11pt; font-family: Arial; background-color: transparent; font-variant-numeric: normal; font-variant-east-asian: normal; vertical-align: baseline;&quot;&gt;1&lt;/span&gt;&lt;/p&gt;&lt;/td&gt;&lt;td style=&quot;vertical-align:top;background-color:#ffeb84;padding:5pt 5pt 5pt 5pt;overflow:hidden;overflow-wrap:break-word;&quot;&gt;&lt;p style=&quot;line-height:1.38;margin-top:0pt;margin-bottom:0pt;&quot; dir=&quot;ltr&quot;&gt;&lt;span style=&quot;font-size: 11pt; font-family: Arial; background-color: transparent; font-variant-numeric: normal; font-variant-east-asian: normal; vertical-align: baseline;&quot;&gt;1&lt;/span&gt;&lt;/p&gt;&lt;/td&gt;&lt;td style=&quot;vertical-align:top;background-color:#ffeb84;padding:5pt 5pt 5pt 5pt;overflow:hidden;overflow-wrap:break-word;&quot;&gt;&lt;p style=&quot;line-height:1.38;margin-top:0pt;margin-bottom:0pt;&quot; dir=&quot;ltr&quot;&gt;&lt;span style=&quot;font-size: 11pt; font-family: Arial; background-color: transparent; font-variant-numeric: normal; font-variant-east-asian: normal; vertical-align: baseline;&quot;&gt;1&lt;/span&gt;&lt;/p&gt;&lt;/td&gt;&lt;td style=&quot;vertical-align:top;background-color:#ffeb84;padding:5pt 5pt 5pt 5pt;overflow:hidden;overflow-wrap:break-word;&quot;&gt;&lt;p style=&quot;line-height:1.38;margin-top:0pt;margin-bottom:0pt;&quot; dir=&quot;ltr&quot;&gt;&lt;span style=&quot;font-size: 11pt; font-family: Arial; background-color: transparent; font-variant-numeric: normal; font-variant-east-asian: normal; vertical-align: baseline;&quot;&gt;1&lt;/span&gt;&lt;/p&gt;&lt;/td&gt;&lt;td style=&quot;vertical-align:top;background-color:#ffeb84;padding:5pt 5pt 5pt 5pt;overflow:hidden;overflow-wrap:break-word;&quot;&gt;&lt;p style=&quot;line-height:1.38;margin-top:0pt;margin-bottom:0pt;&quot; dir=&quot;ltr&quot;&gt;&lt;span style=&quot;font-size: 11pt; font-family: Arial; background-color: transparent; font-variant-numeric: normal; font-variant-east-asian: normal; vertical-align: baseline;&quot;&gt;1&lt;/span&gt;&lt;/p&gt;&lt;/td&gt;&lt;td style=&quot;vertical-align:top;background-color:#ffeb84;padding:5pt 5pt 5pt 5pt;overflow:hidden;overflow-wrap:break-word;&quot;&gt;&lt;p style=&quot;line-height:1.38;margin-top:0pt;margin-bottom:0pt;&quot; dir=&quot;ltr&quot;&gt;&lt;span style=&quot;font-size: 11pt; font-family: Arial; background-color: transparent; font-variant-numeric: normal; font-variant-east-asian: normal; vertical-align: baseline;&quot;&gt;1&lt;/span&gt;&lt;/p&gt;&lt;/td&gt;&lt;td style=&quot;vertical-align:top;background-color:#ffeb84;padding:5pt 5pt 5pt 5pt;overflow:hidden;overflow-wrap:break-word;&quot;&gt;&lt;p style=&quot;line-height:1.38;margin-top:0pt;margin-bottom:0pt;&quot; dir=&quot;ltr&quot;&gt;&lt;span style=&quot;font-size: 11pt; font-family: Arial; background-color: transparent; font-variant-numeric: normal; font-variant-east-asian: normal; vertical-align: baseline;&quot;&gt;1&lt;/span&gt;&lt;/p&gt;&lt;/td&gt;&lt;td style=&quot;vertical-align:top;background-color:#ffeb84;padding:5pt 5pt 5pt 5pt;overflow:hidden;overflow-wrap:break-word;&quot;&gt;&lt;p style=&quot;line-height:1.38;margin-top:0pt;margin-bottom:0pt;&quot; dir=&quot;ltr&quot;&gt;&lt;span style=&quot;font-size: 11pt; font-family: Arial; background-color: transparent; font-variant-numeric: normal; font-variant-east-asian: normal; vertical-align: baseline;&quot;&gt;1&lt;/span&gt;&lt;/p&gt;&lt;/td&gt;&lt;td style=&quot;vertical-align:top;background-color:#ffeb84;padding:5pt 5pt 5pt 5pt;overflow:hidden;overflow-wrap:break-word;&quot;&gt;&lt;p style=&quot;line-height:1.38;margin-top:0pt;margin-bottom:0pt;&quot; dir=&quot;ltr&quot;&gt;&lt;span style=&quot;font-size: 11pt; font-family: Arial; background-color: transparent; font-variant-numeric: normal; font-variant-east-asian: normal; vertical-align: baseline;&quot;&gt;1&lt;/span&gt;&lt;/p&gt;&lt;/td&gt;&lt;/tr&gt;&lt;tr style=&quot;height:24.25pt&quot;&gt;&lt;td style=&quot;vertical-align:top;background-color:#ffeb84;padding:5pt 5pt 5pt 5pt;overflow:hidden;overflow-wrap:break-word;&quot;&gt;&lt;p style=&quot;line-height:1.38;margin-top:0pt;margin-bottom:0pt;&quot; dir=&quot;ltr&quot;&gt;&lt;span style=&quot;font-size: 11pt; font-family: Arial; background-color: transparent; font-variant-numeric: normal; font-variant-east-asian: normal; vertical-align: baseline;&quot;&gt;1&lt;/span&gt;&lt;/p&gt;&lt;/td&gt;&lt;td style=&quot;vertical-align:top;background-color:#fcaa78;padding:5pt 5pt 5pt 5pt;overflow:hidden;overflow-wrap:break-word;&quot;&gt;&lt;p style=&quot;line-height:1.38;margin-top:0pt;margin-bottom:0pt;&quot; dir=&quot;ltr&quot;&gt;&lt;span style=&quot;font-size: 11pt; font-family: Arial; background-color: transparent; font-variant-numeric: normal; font-variant-east-asian: normal; vertical-align: baseline;&quot;&gt;2&lt;/span&gt;&lt;/p&gt;&lt;/td&gt;&lt;td style=&quot;vertical-align:top;background-color:#63be7b;padding:5pt 5pt 5pt 5pt;overflow:hidden;overflow-wrap:break-word;&quot;&gt;&lt;p style=&quot;line-height:1.38;margin-top:0pt;margin-bottom:0pt;&quot; dir=&quot;ltr&quot;&gt;&lt;span style=&quot;font-size: 11pt; font-family: Arial; background-color: transparent; font-variant-numeric: normal; font-variant-east-asian: normal; vertical-align: baseline;&quot;&gt;0&lt;/span&gt;&lt;/p&gt;&lt;/td&gt;&lt;td style=&quot;vertical-align:top;background-color:#63be7b;padding:5pt 5pt 5pt 5pt;overflow:hidden;overflow-wrap:break-word;&quot;&gt;&lt;p style=&quot;line-height:1.38;margin-top:0pt;margin-bottom:0pt;&quot; dir=&quot;ltr&quot;&gt;&lt;span style=&quot;font-size: 11pt; font-family: Arial; background-color: transparent; font-variant-numeric: normal; font-variant-east-asian: normal; vertical-align: baseline;&quot;&gt;0&lt;/span&gt;&lt;/p&gt;&lt;/td&gt;&lt;td style=&quot;vertical-align:top;background-color:#63be7b;padding:5pt 5pt 5pt 5pt;overflow:hidden;overflow-wrap:break-word;&quot;&gt;&lt;p style=&quot;line-height:1.38;margin-top:0pt;margin-bottom:0pt;&quot; dir=&quot;ltr&quot;&gt;&lt;span style=&quot;font-size: 11pt; font-family: Arial; background-color: transparent; font-variant-numeric: normal; font-variant-east-asian: normal; vertical-align: baseline;&quot;&gt;0&lt;/span&gt;&lt;/p&gt;&lt;/td&gt;&lt;td style=&quot;vertical-align:top;background-color:#63be7b;padding:5pt 5pt 5pt 5pt;overflow:hidden;overflow-wrap:break-word;&quot;&gt;&lt;p style=&quot;line-height:1.38;margin-top:0pt;margin-bottom:0pt;&quot; dir=&quot;ltr&quot;&gt;&lt;span style=&quot;font-size: 11pt; font-family: Arial; background-color: transparent; font-variant-numeric: normal; font-variant-east-asian: normal; vertical-align: baseline;&quot;&gt;0&lt;/span&gt;&lt;/p&gt;&lt;/td&gt;&lt;td style=&quot;vertical-align:top;background-color:#ffeb84;padding:5pt 5pt 5pt 5pt;overflow:hidden;overflow-wrap:break-word;&quot;&gt;&lt;p style=&quot;line-height:1.38;margin-top:0pt;margin-bottom:0pt;&quot; dir=&quot;ltr&quot;&gt;&lt;span style=&quot;font-size: 11pt; font-family: Arial; background-color: transparent; font-variant-numeric: normal; font-variant-east-asian: normal; vertical-align: baseline;&quot;&gt;1&lt;/span&gt;&lt;/p&gt;&lt;/td&gt;&lt;td style=&quot;vertical-align:top;background-color:#63be7b;padding:5pt 5pt 5pt 5pt;overflow:hidden;overflow-wrap:break-word;&quot;&gt;&lt;p style=&quot;line-height:1.38;margin-top:0pt;margin-bottom:0pt;&quot; dir=&quot;ltr&quot;&gt;&lt;span style=&quot;font-size: 11pt; font-family: Arial; background-color: transparent; font-variant-numeric: normal; font-variant-east-asian: normal; vertical-align: baseline;&quot;&gt;0&lt;/span&gt;&lt;/p&gt;&lt;/td&gt;&lt;td style=&quot;vertical-align:top;background-color:#63be7b;padding:5pt 5pt 5pt 5pt;overflow:hidden;overflow-wrap:break-word;&quot;&gt;&lt;p style=&quot;line-height:1.38;margin-top:0pt;margin-bottom:0pt;&quot; dir=&quot;ltr&quot;&gt;&lt;span style=&quot;font-size: 11pt; font-family: Arial; background-color: transparent; font-variant-numeric: normal; font-variant-east-asian: normal; vertical-align: baseline;&quot;&gt;0&lt;/span&gt;&lt;/p&gt;&lt;/td&gt;&lt;td style=&quot;vertical-align:top;background-color:#63be7b;padding:5pt 5pt 5pt 5pt;overflow:hidden;overflow-wrap:break-word;&quot;&gt;&lt;p style=&quot;line-height:1.38;margin-top:0pt;margin-bottom:0pt;&quot; dir=&quot;ltr&quot;&gt;&lt;span style=&quot;font-size: 11pt; font-family: Arial; background-color: transparent; font-variant-numeric: normal; font-variant-east-asian: normal; vertical-align: baseline;&quot;&gt;0&lt;/span&gt;&lt;/p&gt;&lt;/td&gt;&lt;td style=&quot;vertical-align:top;background-color:#ffeb84;padding:5pt 5pt 5pt 5pt;overflow:hidden;overflow-wrap:break-word;&quot;&gt;&lt;p style=&quot;line-height:1.38;margin-top:0pt;margin-bottom:0pt;&quot; dir=&quot;ltr&quot;&gt;&lt;span style=&quot;font-size: 11pt; font-family: Arial; background-color: transparent; font-variant-numeric: normal; font-variant-east-asian: normal; vertical-align: baseline;&quot;&gt;1&lt;/span&gt;&lt;/p&gt;&lt;/td&gt;&lt;td style=&quot;vertical-align:top;background-color:#63be7b;padding:5pt 5pt 5pt 5pt;overflow:hidden;overflow-wrap:break-word;&quot;&gt;&lt;p style=&quot;line-height:1.38;margin-top:0pt;margin-bottom:0pt;&quot; dir=&quot;ltr&quot;&gt;&lt;span style=&quot;font-size: 11pt; font-family: Arial; background-color: transparent; font-variant-numeric: normal; font-variant-east-asian: normal; vertical-align: baseline;&quot;&gt;0&lt;/span&gt;&lt;/p&gt;&lt;/td&gt;&lt;td style=&quot;vertical-align:top;background-color:#63be7b;padding:5pt 5pt 5pt 5pt;overflow:hidden;overflow-wrap:break-word;&quot;&gt;&lt;p style=&quot;line-height:1.38;margin-top:0pt;margin-bottom:0pt;&quot; dir=&quot;ltr&quot;&gt;&lt;span style=&quot;font-size: 11pt; font-family: Arial; background-color: transparent; font-variant-numeric: normal; font-variant-east-asian: normal; vertical-align: baseline;&quot;&gt;0&lt;/span&gt;&lt;/p&gt;&lt;/td&gt;&lt;td style=&quot;vertical-align:top;background-color:#63be7b;padding:5pt 5pt 5pt 5pt;overflow:hidden;overflow-wrap:break-word;&quot;&gt;&lt;p style=&quot;line-height:1.38;margin-top:0pt;margin-bottom:0pt;&quot; dir=&quot;ltr&quot;&gt;&lt;span style=&quot;font-size: 11pt; font-family: Arial; background-color: transparent; font-variant-numeric: normal; font-variant-east-asian: normal; vertical-align: baseline;&quot;&gt;0&lt;/span&gt;&lt;/p&gt;&lt;/td&gt;&lt;td style=&quot;vertical-align:top;background-color:#ffeb84;padding:5pt 5pt 5pt 5pt;overflow:hidden;overflow-wrap:break-word;&quot;&gt;&lt;p style=&quot;line-height:1.38;margin-top:0pt;margin-bottom:0pt;&quot; dir=&quot;ltr&quot;&gt;&lt;span style=&quot;font-size: 11pt; font-family: Arial; background-color: transparent; font-variant-numeric: normal; font-variant-east-asian: normal; vertical-align: baseline;&quot;&gt;1&lt;/span&gt;&lt;/p&gt;&lt;/td&gt;&lt;/tr&gt;&lt;tr style=&quot;height:24.25pt&quot;&gt;&lt;td style=&quot;vertical-align:top;background-color:#ffeb84;padding:5pt 5pt 5pt 5pt;overflow:hidden;overflow-wrap:break-word;&quot;&gt;&lt;p style=&quot;line-height:1.38;margin-top:0pt;margin-bottom:0pt;&quot; dir=&quot;ltr&quot;&gt;&lt;span style=&quot;font-size: 11pt; font-family: Arial; background-color: transparent; font-variant-numeric: normal; font-variant-east-asian: normal; vertical-align: baseline;&quot;&gt;1&lt;/span&gt;&lt;/p&gt;&lt;/td&gt;&lt;td style=&quot;vertical-align:top;background-color:#ffeb84;padding:5pt 5pt 5pt 5pt;overflow:hidden;overflow-wrap:break-word;&quot;&gt;&lt;p style=&quot;line-height:1.38;margin-top:0pt;margin-bottom:0pt;&quot; dir=&quot;ltr&quot;&gt;&lt;span style=&quot;font-size: 11pt; font-family: Arial; background-color: transparent; font-variant-numeric: normal; font-variant-east-asian: normal; vertical-align: baseline;&quot;&gt;1&lt;/span&gt;&lt;/p&gt;&lt;/td&gt;&lt;td style=&quot;vertical-align:top;background-color:#ffeb84;padding:5pt 5pt 5pt 5pt;overflow:hidden;overflow-wrap:break-word;&quot;&gt;&lt;p style=&quot;line-height:1.38;margin-top:0pt;margin-bottom:0pt;&quot; dir=&quot;ltr&quot;&gt;&lt;span style=&quot;font-size: 11pt; font-family: Arial; background-color: transparent; font-variant-numeric: normal; font-variant-east-asian: normal; vertical-align: baseline;&quot;&gt;1&lt;/span&gt;&lt;/p&gt;&lt;/td&gt;&lt;td style=&quot;vertical-align:top;background-color:#ffeb84;padding:5pt 5pt 5pt 5pt;overflow:hidden;overflow-wrap:break-word;&quot;&gt;&lt;p style=&quot;line-height:1.38;margin-top:0pt;margin-bottom:0pt;&quot; dir=&quot;ltr&quot;&gt;&lt;span style=&quot;font-size: 11pt; font-family: Arial; background-color: transparent; font-variant-numeric: normal; font-variant-east-asian: normal; vertical-align: baseline;&quot;&gt;1&lt;/span&gt;&lt;/p&gt;&lt;/td&gt;&lt;td style=&quot;vertical-align:top;background-color:#ffeb84;padding:5pt 5pt 5pt 5pt;overflow:hidden;overflow-wrap:break-word;&quot;&gt;&lt;p style=&quot;line-height:1.38;margin-top:0pt;margin-bottom:0pt;&quot; dir=&quot;ltr&quot;&gt;&lt;span style=&quot;font-size: 11pt; font-family: Arial; background-color: transparent; font-variant-numeric: normal; font-variant-east-asian: normal; vertical-align: baseline;&quot;&gt;1&lt;/span&gt;&lt;/p&gt;&lt;/td&gt;&lt;td style=&quot;vertical-align:top;background-color:#63be7b;padding:5pt 5pt 5pt 5pt;overflow:hidden;overflow-wrap:break-word;&quot;&gt;&lt;p style=&quot;line-height:1.38;margin-top:0pt;margin-bottom:0pt;&quot; dir=&quot;ltr&quot;&gt;&lt;span style=&quot;font-size: 11pt; font-family: Arial; background-color: transparent; font-variant-numeric: normal; font-variant-east-asian: normal; vertical-align: baseline;&quot;&gt;0&lt;/span&gt;&lt;/p&gt;&lt;/td&gt;&lt;td style=&quot;vertical-align:top;background-color:#ffeb84;padding:5pt 5pt 5pt 5pt;overflow:hidden;overflow-wrap:break-word;&quot;&gt;&lt;p style=&quot;line-height:1.38;margin-top:0pt;margin-bottom:0pt;&quot; dir=&quot;ltr&quot;&gt;&lt;span style=&quot;font-size: 11pt; font-family: Arial; background-color: transparent; font-variant-numeric: normal; font-variant-east-asian: normal; vertical-align: baseline;&quot;&gt;1&lt;/span&gt;&lt;/p&gt;&lt;/td&gt;&lt;td style=&quot;vertical-align:top;background-color:#ffeb84;padding:5pt 5pt 5pt 5pt;overflow:hidden;overflow-wrap:break-word;&quot;&gt;&lt;p style=&quot;line-height:1.38;margin-top:0pt;margin-bottom:0pt;&quot; dir=&quot;ltr&quot;&gt;&lt;span style=&quot;font-size: 11pt; font-family: Arial; background-color: transparent; font-variant-numeric: normal; font-variant-east-asian: normal; vertical-align: baseline;&quot;&gt;1&lt;/span&gt;&lt;/p&gt;&lt;/td&gt;&lt;td style=&quot;vertical-align:top;background-color:#ffeb84;padding:5pt 5pt 5pt 5pt;overflow:hidden;overflow-wrap:break-word;&quot;&gt;&lt;p style=&quot;line-height:1.38;margin-top:0pt;margin-bottom:0pt;&quot; dir=&quot;ltr&quot;&gt;&lt;span style=&quot;font-size: 11pt; font-family: Arial; background-color: transparent; font-variant-numeric: normal; font-variant-east-asian: normal; vertical-align: baseline;&quot;&gt;1&lt;/span&gt;&lt;/p&gt;&lt;/td&gt;&lt;td style=&quot;vertical-align:top;background-color:#63be7b;padding:5pt 5pt 5pt 5pt;overflow:hidden;overflow-wrap:break-word;&quot;&gt;&lt;p style=&quot;line-height:1.38;margin-top:0pt;margin-bottom:0pt;&quot; dir=&quot;ltr&quot;&gt;&lt;span style=&quot;font-size: 11pt; font-family: Arial; background-color: transparent; font-variant-numeric: normal; font-variant-east-asian: normal; vertical-align: baseline;&quot;&gt;0&lt;/span&gt;&lt;/p&gt;&lt;/td&gt;&lt;td style=&quot;vertical-align:top;background-color:#ffeb84;padding:5pt 5pt 5pt 5pt;overflow:hidden;overflow-wrap:break-word;&quot;&gt;&lt;p style=&quot;line-height:1.38;margin-top:0pt;margin-bottom:0pt;&quot; dir=&quot;ltr&quot;&gt;&lt;span style=&quot;font-size: 11pt; font-family: Arial; background-color: transparent; font-variant-numeric: normal; font-variant-east-asian: normal; vertical-align: baseline;&quot;&gt;1&lt;/span&gt;&lt;/p&gt;&lt;/td&gt;&lt;td style=&quot;vertical-align:top;background-color:#63be7b;padding:5pt 5pt 5pt 5pt;overflow:hidden;overflow-wrap:break-word;&quot;&gt;&lt;p style=&quot;line-height:1.38;margin-top:0pt;margin-bottom:0pt;&quot; dir=&quot;ltr&quot;&gt;&lt;span style=&quot;font-size: 11pt; font-family: Arial; background-color: transparent; font-variant-numeric: normal; font-variant-east-asian: normal; vertical-align: baseline;&quot;&gt;0&lt;/span&gt;&lt;/p&gt;&lt;/td&gt;&lt;td style=&quot;vertical-align:top;background-color:#ffeb84;padding:5pt 5pt 5pt 5pt;overflow:hidden;overflow-wrap:break-word;&quot;&gt;&lt;p style=&quot;line-height:1.38;margin-top:0pt;margin-bottom:0pt;&quot; dir=&quot;ltr&quot;&gt;&lt;span style=&quot;font-size: 11pt; font-family: Arial; background-color: transparent; font-variant-numeric: normal; font-variant-east-asian: normal; vertical-align: baseline;&quot;&gt;1&lt;/span&gt;&lt;/p&gt;&lt;/td&gt;&lt;td style=&quot;vertical-align:top;background-color:#63be7b;padding:5pt 5pt 5pt 5pt;overflow:hidden;overflow-wrap:break-word;&quot;&gt;&lt;p style=&quot;line-height:1.38;margin-top:0pt;margin-bottom:0pt;&quot; dir=&quot;ltr&quot;&gt;&lt;span style=&quot;font-size: 11pt; font-family: Arial; background-color: transparent; font-variant-numeric: normal; font-variant-east-asian: normal; vertical-align: baseline;&quot;&gt;0&lt;/span&gt;&lt;/p&gt;&lt;/td&gt;&lt;td style=&quot;vertical-align:top;background-color:#ffeb84;padding:5pt 5pt 5pt 5pt;overflow:hidden;overflow-wrap:break-word;&quot;&gt;&lt;p style=&quot;line-height:1.38;margin-top:0pt;margin-bottom:0pt;&quot; dir=&quot;ltr&quot;&gt;&lt;span style=&quot;font-size: 11pt; font-family: Arial; background-color: transparent; font-variant-numeric: normal; font-variant-east-asian: normal; vertical-align: baseline;&quot;&gt;1&lt;/span&gt;&lt;/p&gt;&lt;/td&gt;&lt;/tr&gt;&lt;tr style=&quot;height:24.25pt&quot;&gt;&lt;td style=&quot;vertical-align:top;background-color:#ffeb84;padding:5pt 5pt 5pt 5pt;overflow:hidden;overflow-wrap:break-word;&quot;&gt;&lt;p style=&quot;line-height:1.38;margin-top:0pt;margin-bottom:0pt;&quot; dir=&quot;ltr&quot;&gt;&lt;span style=&quot;font-size: 11pt; font-family: Arial; background-color: transparent; font-variant-numeric: normal; font-variant-east-asian: normal; vertical-align: baseline;&quot;&gt;1&lt;/span&gt;&lt;/p&gt;&lt;/td&gt;&lt;td style=&quot;vertical-align:top;background-color:#63be7b;padding:5pt 5pt 5pt 5pt;overflow:hidden;overflow-wrap:break-word;&quot;&gt;&lt;p style=&quot;line-height:1.38;margin-top:0pt;margin-bottom:0pt;&quot; dir=&quot;ltr&quot;&gt;&lt;span style=&quot;font-size: 11pt; font-family: Arial; background-color: transparent; font-variant-numeric: normal; font-variant-east-asian: normal; vertical-align: baseline;&quot;&gt;0&lt;/span&gt;&lt;/p&gt;&lt;/td&gt;&lt;td style=&quot;vertical-align:top;background-color:#63be7b;padding:5pt 5pt 5pt 5pt;overflow:hidden;overflow-wrap:break-word;&quot;&gt;&lt;p style=&quot;line-height:1.38;margin-top:0pt;margin-bottom:0pt;&quot; dir=&quot;ltr&quot;&gt;&lt;span style=&quot;font-size: 11pt; font-family: Arial; background-color: transparent; font-variant-numeric: normal; font-variant-east-asian: normal; vertical-align: baseline;&quot;&gt;0&lt;/span&gt;&lt;/p&gt;&lt;/td&gt;&lt;td style=&quot;vertical-align:top;background-color:#63be7b;padding:5pt 5pt 5pt 5pt;overflow:hidden;overflow-wrap:break-word;&quot;&gt;&lt;p style=&quot;line-height:1.38;margin-top:0pt;margin-bottom:0pt;&quot; dir=&quot;ltr&quot;&gt;&lt;span style=&quot;font-size: 11pt; font-family: Arial; background-color: transparent; font-variant-numeric: normal; font-variant-east-asian: normal; vertical-align: baseline;&quot;&gt;0&lt;/span&gt;&lt;/p&gt;&lt;/td&gt;&lt;td style=&quot;vertical-align:top;background-color:#ffeb84;padding:5pt 5pt 5pt 5pt;overflow:hidden;overflow-wrap:break-word;&quot;&gt;&lt;p style=&quot;line-height:1.38;margin-top:0pt;margin-bottom:0pt;&quot; dir=&quot;ltr&quot;&gt;&lt;span style=&quot;font-size: 11pt; font-family: Arial; background-color: transparent; font-variant-numeric: normal; font-variant-east-asian: normal; vertical-align: baseline;&quot;&gt;1&lt;/span&gt;&lt;/p&gt;&lt;/td&gt;&lt;td style=&quot;vertical-align:top;background-color:#63be7b;padding:5pt 5pt 5pt 5pt;overflow:hidden;overflow-wrap:break-word;&quot;&gt;&lt;p style=&quot;line-height:1.38;margin-top:0pt;margin-bottom:0pt;&quot; dir=&quot;ltr&quot;&gt;&lt;span style=&quot;font-size: 11pt; font-family: Arial; background-color: transparent; font-variant-numeric: normal; font-variant-east-asian: normal; vertical-align: baseline;&quot;&gt;0&lt;/span&gt;&lt;/p&gt;&lt;/td&gt;&lt;td style=&quot;vertical-align:top;background-color:#63be7b;padding:5pt 5pt 5pt 5pt;overflow:hidden;overflow-wrap:break-word;&quot;&gt;&lt;p style=&quot;line-height:1.38;margin-top:0pt;margin-bottom:0pt;&quot; dir=&quot;ltr&quot;&gt;&lt;span style=&quot;font-size: 11pt; font-family: Arial; background-color: transparent; font-variant-numeric: normal; font-variant-east-asian: normal; vertical-align: baseline;&quot;&gt;0&lt;/span&gt;&lt;/p&gt;&lt;/td&gt;&lt;td style=&quot;vertical-align:top;background-color:#63be7b;padding:5pt 5pt 5pt 5pt;overflow:hidden;overflow-wrap:break-word;&quot;&gt;&lt;p style=&quot;line-height:1.38;margin-top:0pt;margin-bottom:0pt;&quot; dir=&quot;ltr&quot;&gt;&lt;span style=&quot;font-size: 11pt; font-family: Arial; background-color: transparent; font-variant-numeric: normal; font-variant-east-asian: normal; vertical-align: baseline;&quot;&gt;0&lt;/span&gt;&lt;/p&gt;&lt;/td&gt;&lt;td style=&quot;vertical-align:top;background-color:#ffeb84;padding:5pt 5pt 5pt 5pt;overflow:hidden;overflow-wrap:break-word;&quot;&gt;&lt;p style=&quot;line-height:1.38;margin-top:0pt;margin-bottom:0pt;&quot; dir=&quot;ltr&quot;&gt;&lt;span style=&quot;font-size: 11pt; font-family: Arial; background-color: transparent; font-variant-numeric: normal; font-variant-east-asian: normal; vertical-align: baseline;&quot;&gt;1&lt;/span&gt;&lt;/p&gt;&lt;/td&gt;&lt;td style=&quot;vertical-align:top;background-color:#63be7b;padding:5pt 5pt 5pt 5pt;overflow:hidden;overflow-wrap:break-word;&quot;&gt;&lt;p style=&quot;line-height:1.38;margin-top:0pt;margin-bottom:0pt;&quot; dir=&quot;ltr&quot;&gt;&lt;span style=&quot;font-size: 11pt; font-family: Arial; background-color: transparent; font-variant-numeric: normal; font-variant-east-asian: normal; vertical-align: baseline;&quot;&gt;0&lt;/span&gt;&lt;/p&gt;&lt;/td&gt;&lt;td style=&quot;vertical-align:top;background-color:#63be7b;padding:5pt 5pt 5pt 5pt;overflow:hidden;overflow-wrap:break-word;&quot;&gt;&lt;p style=&quot;line-height:1.38;margin-top:0pt;margin-bottom:0pt;&quot; dir=&quot;ltr&quot;&gt;&lt;span style=&quot;font-size: 11pt; font-family: Arial; background-color: transparent; font-variant-numeric: normal; font-variant-east-asian: normal; vertical-align: baseline;&quot;&gt;0&lt;/span&gt;&lt;/p&gt;&lt;/td&gt;&lt;td style=&quot;vertical-align:top;background-color:#63be7b;padding:5pt 5pt 5pt 5pt;overflow:hidden;overflow-wrap:break-word;&quot;&gt;&lt;p style=&quot;line-height:1.38;margin-top:0pt;margin-bottom:0pt;&quot; dir=&quot;ltr&quot;&gt;&lt;span style=&quot;font-size: 11pt; font-family: Arial; background-color: transparent; font-variant-numeric: normal; font-variant-east-asian: normal; vertical-align: baseline;&quot;&gt;0&lt;/span&gt;&lt;/p&gt;&lt;/td&gt;&lt;td style=&quot;vertical-align:top;background-color:#ffeb84;padding:5pt 5pt 5pt 5pt;overflow:hidden;overflow-wrap:break-word;&quot;&gt;&lt;p style=&quot;line-height:1.38;margin-top:0pt;margin-bottom:0pt;&quot; dir=&quot;ltr&quot;&gt;&lt;span style=&quot;font-size: 11pt; font-family: Arial; background-color: transparent; font-variant-numeric: normal; font-variant-east-asian: normal; vertical-align: baseline;&quot;&gt;1&lt;/span&gt;&lt;/p&gt;&lt;/td&gt;&lt;td style=&quot;vertical-align:top;background-color:#63be7b;padding:5pt 5pt 5pt 5pt;overflow:hidden;overflow-wrap:break-word;&quot;&gt;&lt;p style=&quot;line-height:1.38;margin-top:0pt;margin-bottom:0pt;&quot; dir=&quot;ltr&quot;&gt;&lt;span style=&quot;font-size: 11pt; font-family: Arial; background-color: transparent; font-variant-numeric: normal; font-variant-east-asian: normal; vertical-align: baseline;&quot;&gt;0&lt;/span&gt;&lt;/p&gt;&lt;/td&gt;&lt;td style=&quot;vertical-align:top;background-color:#ffeb84;padding:5pt 5pt 5pt 5pt;overflow:hidden;overflow-wrap:break-word;&quot;&gt;&lt;p style=&quot;line-height:1.38;margin-top:0pt;margin-bottom:0pt;&quot; dir=&quot;ltr&quot;&gt;&lt;span style=&quot;font-size: 11pt; font-family: Arial; background-color: transparent; font-variant-numeric: normal; font-variant-east-asian: normal; vertical-align: baseline;&quot;&gt;1&lt;/span&gt;&lt;/p&gt;&lt;/td&gt;&lt;/tr&gt;&lt;tr style=&quot;height:24.25pt&quot;&gt;&lt;td style=&quot;vertical-align:top;background-color:#ffeb84;padding:5pt 5pt 5pt 5pt;overflow:hidden;overflow-wrap:break-word;&quot;&gt;&lt;p style=&quot;line-height:1.38;margin-top:0pt;margin-bottom:0pt;&quot; dir=&quot;ltr&quot;&gt;&lt;span style=&quot;font-size: 11pt; font-family: Arial; background-color: transparent; font-variant-numeric: normal; font-variant-east-asian: normal; vertical-align: baseline;&quot;&gt;1&lt;/span&gt;&lt;/p&gt;&lt;/td&gt;&lt;td style=&quot;vertical-align:top;background-color:#63be7b;padding:5pt 5pt 5pt 5pt;overflow:hidden;overflow-wrap:break-word;&quot;&gt;&lt;p style=&quot;line-height:1.38;margin-top:0pt;margin-bottom:0pt;&quot; dir=&quot;ltr&quot;&gt;&lt;span style=&quot;font-size: 11pt; font-family: Arial; background-color: transparent; font-variant-numeric: normal; font-variant-east-asian: normal; vertical-align: baseline;&quot;&gt;0&lt;/span&gt;&lt;/p&gt;&lt;/td&gt;&lt;td style=&quot;vertical-align:top;background-color:#ffeb84;padding:5pt 5pt 5pt 5pt;overflow:hidden;overflow-wrap:break-word;&quot;&gt;&lt;p style=&quot;line-height:1.38;margin-top:0pt;margin-bottom:0pt;&quot; dir=&quot;ltr&quot;&gt;&lt;span style=&quot;font-size: 11pt; font-family: Arial; background-color: transparent; font-variant-numeric: normal; font-variant-east-asian: normal; vertical-align: baseline;&quot;&gt;1&lt;/span&gt;&lt;/p&gt;&lt;/td&gt;&lt;td style=&quot;vertical-align:top;background-color:#ffeb84;padding:5pt 5pt 5pt 5pt;overflow:hidden;overflow-wrap:break-word;&quot;&gt;&lt;p style=&quot;line-height:1.38;margin-top:0pt;margin-bottom:0pt;&quot; dir=&quot;ltr&quot;&gt;&lt;span style=&quot;font-size: 11pt; font-family: Arial; background-color: transparent; font-variant-numeric: normal; font-variant-east-asian: normal; vertical-align: baseline;&quot;&gt;1&lt;/span&gt;&lt;/p&gt;&lt;/td&gt;&lt;td style=&quot;vertical-align:top;background-color:#ffeb84;padding:5pt 5pt 5pt 5pt;overflow:hidden;overflow-wrap:break-word;&quot;&gt;&lt;p style=&quot;line-height:1.38;margin-top:0pt;margin-bottom:0pt;&quot; dir=&quot;ltr&quot;&gt;&lt;span style=&quot;font-size: 11pt; font-family: Arial; background-color: transparent; font-variant-numeric: normal; font-variant-east-asian: normal; vertical-align: baseline;&quot;&gt;1&lt;/span&gt;&lt;/p&gt;&lt;/td&gt;&lt;td style=&quot;vertical-align:top;background-color:#63be7b;padding:5pt 5pt 5pt 5pt;overflow:hidden;overflow-wrap:break-word;&quot;&gt;&lt;p style=&quot;line-height:1.38;margin-top:0pt;margin-bottom:0pt;&quot; dir=&quot;ltr&quot;&gt;&lt;span style=&quot;font-size: 11pt; font-family: Arial; background-color: transparent; font-variant-numeric: normal; font-variant-east-asian: normal; vertical-align: baseline;&quot;&gt;0&lt;/span&gt;&lt;/p&gt;&lt;/td&gt;&lt;td style=&quot;vertical-align:top;background-color:#ffeb84;padding:5pt 5pt 5pt 5pt;overflow:hidden;overflow-wrap:break-word;&quot;&gt;&lt;p style=&quot;line-height:1.38;margin-top:0pt;margin-bottom:0pt;&quot; dir=&quot;ltr&quot;&gt;&lt;span style=&quot;font-size: 11pt; font-family: Arial; background-color: transparent; font-variant-numeric: normal; font-variant-east-asian: normal; vertical-align: baseline;&quot;&gt;1&lt;/span&gt;&lt;/p&gt;&lt;/td&gt;&lt;td style=&quot;vertical-align:top;background-color:#ffeb84;padding:5pt 5pt 5pt 5pt;overflow:hidden;overflow-wrap:break-word;&quot;&gt;&lt;p style=&quot;line-height:1.38;margin-top:0pt;margin-bottom:0pt;&quot; dir=&quot;ltr&quot;&gt;&lt;span style=&quot;font-size: 11pt; font-family: Arial; background-color: transparent; font-variant-numeric: normal; font-variant-east-asian: normal; vertical-align: baseline;&quot;&gt;1&lt;/span&gt;&lt;/p&gt;&lt;/td&gt;&lt;td style=&quot;vertical-align:top;background-color:#ffeb84;padding:5pt 5pt 5pt 5pt;overflow:hidden;overflow-wrap:break-word;&quot;&gt;&lt;p style=&quot;line-height:1.38;margin-top:0pt;margin-bottom:0pt;&quot; dir=&quot;ltr&quot;&gt;&lt;span style=&quot;font-size: 11pt; font-family: Arial; background-color: transparent; font-variant-numeric: normal; font-variant-east-asian: normal; vertical-align: baseline;&quot;&gt;1&lt;/span&gt;&lt;/p&gt;&lt;/td&gt;&lt;td style=&quot;vertical-align:top;background-color:#ffeb84;padding:5pt 5pt 5pt 5pt;overflow:hidden;overflow-wrap:break-word;&quot;&gt;&lt;p style=&quot;line-height:1.38;margin-top:0pt;margin-bottom:0pt;&quot; dir=&quot;ltr&quot;&gt;&lt;span style=&quot;font-size: 11pt; font-family: Arial; background-color: transparent; font-variant-numeric: normal; font-variant-east-asian: normal; vertical-align: baseline;&quot;&gt;1&lt;/span&gt;&lt;/p&gt;&lt;/td&gt;&lt;td style=&quot;vertical-align:top;background-color:#ffeb84;padding:5pt 5pt 5pt 5pt;overflow:hidden;overflow-wrap:break-word;&quot;&gt;&lt;p style=&quot;line-height:1.38;margin-top:0pt;margin-bottom:0pt;&quot; dir=&quot;ltr&quot;&gt;&lt;span style=&quot;font-size: 11pt; font-family: Arial; background-color: transparent; font-variant-numeric: normal; font-variant-east-asian: normal; vertical-align: baseline;&quot;&gt;1&lt;/span&gt;&lt;/p&gt;&lt;/td&gt;&lt;td style=&quot;vertical-align:top;background-color:#63be7b;padding:5pt 5pt 5pt 5pt;overflow:hidden;overflow-wrap:break-word;&quot;&gt;&lt;p style=&quot;line-height:1.38;margin-top:0pt;margin-bottom:0pt;&quot; dir=&quot;ltr&quot;&gt;&lt;span style=&quot;font-size: 11pt; font-family: Arial; background-color: transparent; font-variant-numeric: normal; font-variant-east-asian: normal; vertical-align: baseline;&quot;&gt;0&lt;/span&gt;&lt;/p&gt;&lt;/td&gt;&lt;td style=&quot;vertical-align:top;background-color:#ffeb84;padding:5pt 5pt 5pt 5pt;overflow:hidden;overflow-wrap:break-word;&quot;&gt;&lt;p style=&quot;line-height:1.38;margin-top:0pt;margin-bottom:0pt;&quot; dir=&quot;ltr&quot;&gt;&lt;span style=&quot;font-size: 11pt; font-family: Arial; background-color: transparent; font-variant-numeric: normal; font-variant-east-asian: normal; vertical-align: baseline;&quot;&gt;1&lt;/span&gt;&lt;/p&gt;&lt;/td&gt;&lt;td style=&quot;vertical-align:top;background-color:#ffeb84;padding:5pt 5pt 5pt 5pt;overflow:hidden;overflow-wrap:break-word;&quot;&gt;&lt;p style=&quot;line-height:1.38;margin-top:0pt;margin-bottom:0pt;&quot; dir=&quot;ltr&quot;&gt;&lt;span style=&quot;font-size: 11pt; font-family: Arial; background-color: transparent; font-variant-numeric: normal; font-variant-east-asian: normal; vertical-align: baseline;&quot;&gt;1&lt;/span&gt;&lt;/p&gt;&lt;/td&gt;&lt;td style=&quot;vertical-align:top;background-color:#ffeb84;padding:5pt 5pt 5pt 5pt;overflow:hidden;overflow-wrap:break-word;&quot;&gt;&lt;p style=&quot;line-height:1.38;margin-top:0pt;margin-bottom:0pt;&quot; dir=&quot;ltr&quot;&gt;&lt;span style=&quot;font-size: 11pt; font-family: Arial; background-color: transparent; font-variant-numeric: normal; font-variant-east-asian: normal; vertical-align: baseline;&quot;&gt;1&lt;/span&gt;&lt;/p&gt;&lt;/td&gt;&lt;/tr&gt;&lt;tr style=&quot;height:24.25pt&quot;&gt;&lt;td style=&quot;vertical-align:top;background-color:#ffeb84;padding:5pt 5pt 5pt 5pt;overflow:hidden;overflow-wrap:break-word;&quot;&gt;&lt;p style=&quot;line-height:1.38;margin-top:0pt;margin-bottom:0pt;&quot; dir=&quot;ltr&quot;&gt;&lt;span style=&quot;font-size: 11pt; font-family: Arial; background-color: transparent; font-variant-numeric: normal; font-variant-east-asian: normal; vertical-align: baseline;&quot;&gt;1&lt;/span&gt;&lt;/p&gt;&lt;/td&gt;&lt;td style=&quot;vertical-align:top;background-color:#63be7b;padding:5pt 5pt 5pt 5pt;overflow:hidden;overflow-wrap:break-word;&quot;&gt;&lt;p style=&quot;line-height:1.38;margin-top:0pt;margin-bottom:0pt;&quot; dir=&quot;ltr&quot;&gt;&lt;span style=&quot;font-size: 11pt; font-family: Arial; background-color: transparent; font-variant-numeric: normal; font-variant-east-asian: normal; vertical-align: baseline;&quot;&gt;0&lt;/span&gt;&lt;/p&gt;&lt;/td&gt;&lt;td style=&quot;vertical-align:top;background-color:#63be7b;padding:5pt 5pt 5pt 5pt;overflow:hidden;overflow-wrap:break-word;&quot;&gt;&lt;p style=&quot;line-height:1.38;margin-top:0pt;margin-bottom:0pt;&quot; dir=&quot;ltr&quot;&gt;&lt;span style=&quot;font-size: 11pt; font-family: Arial; background-color: transparent; font-variant-numeric: normal; font-variant-east-asian: normal; vertical-align: baseline;&quot;&gt;0&lt;/span&gt;&lt;/p&gt;&lt;/td&gt;&lt;td style=&quot;vertical-align:top;background-color:#63be7b;padding:5pt 5pt 5pt 5pt;overflow:hidden;overflow-wrap:break-word;&quot;&gt;&lt;p style=&quot;line-height:1.38;margin-top:0pt;margin-bottom:0pt;&quot; dir=&quot;ltr&quot;&gt;&lt;span style=&quot;font-size: 11pt; font-family: Arial; background-color: transparent; font-variant-numeric: normal; font-variant-east-asian: normal; vertical-align: baseline;&quot;&gt;0&lt;/span&gt;&lt;/p&gt;&lt;/td&gt;&lt;td style=&quot;vertical-align:top;background-color:#ffeb84;padding:5pt 5pt 5pt 5pt;overflow:hidden;overflow-wrap:break-word;&quot;&gt;&lt;p style=&quot;line-height:1.38;margin-top:0pt;margin-bottom:0pt;&quot; dir=&quot;ltr&quot;&gt;&lt;span style=&quot;font-size: 11pt; font-family: Arial; background-color: transparent; font-variant-numeric: normal; font-variant-east-asian: normal; vertical-align: baseline;&quot;&gt;1&lt;/span&gt;&lt;/p&gt;&lt;/td&gt;&lt;td style=&quot;vertical-align:top;background-color:#63be7b;padding:5pt 5pt 5pt 5pt;overflow:hidden;overflow-wrap:break-word;&quot;&gt;&lt;p style=&quot;line-height:1.38;margin-top:0pt;margin-bottom:0pt;&quot; dir=&quot;ltr&quot;&gt;&lt;span style=&quot;font-size: 11pt; font-family: Arial; background-color: transparent; font-variant-numeric: normal; font-variant-east-asian: normal; vertical-align: baseline;&quot;&gt;0&lt;/span&gt;&lt;/p&gt;&lt;/td&gt;&lt;td style=&quot;vertical-align:top;background-color:#63be7b;padding:5pt 5pt 5pt 5pt;overflow:hidden;overflow-wrap:break-word;&quot;&gt;&lt;p style=&quot;line-height:1.38;margin-top:0pt;margin-bottom:0pt;&quot; dir=&quot;ltr&quot;&gt;&lt;span style=&quot;font-size: 11pt; font-family: Arial; background-color: transparent; font-variant-numeric: normal; font-variant-east-asian: normal; vertical-align: baseline;&quot;&gt;0&lt;/span&gt;&lt;/p&gt;&lt;/td&gt;&lt;td style=&quot;vertical-align:top;background-color:#63be7b;padding:5pt 5pt 5pt 5pt;overflow:hidden;overflow-wrap:break-word;&quot;&gt;&lt;p style=&quot;line-height:1.38;margin-top:0pt;margin-bottom:0pt;&quot; dir=&quot;ltr&quot;&gt;&lt;span style=&quot;font-size: 11pt; font-family: Arial; background-color: transparent; font-variant-numeric: normal; font-variant-east-asian: normal; vertical-align: baseline;&quot;&gt;0&lt;/span&gt;&lt;/p&gt;&lt;/td&gt;&lt;td style=&quot;vertical-align:top;background-color:#63be7b;padding:5pt 5pt 5pt 5pt;overflow:hidden;overflow-wrap:break-word;&quot;&gt;&lt;p style=&quot;line-height:1.38;margin-top:0pt;margin-bottom:0pt;&quot; dir=&quot;ltr&quot;&gt;&lt;span style=&quot;font-size: 11pt; font-family: Arial; background-color: transparent; font-variant-numeric: normal; font-variant-east-asian: normal; vertical-align: baseline;&quot;&gt;0&lt;/span&gt;&lt;/p&gt;&lt;/td&gt;&lt;td style=&quot;vertical-align:top;background-color:#63be7b;padding:5pt 5pt 5pt 5pt;overflow:hidden;overflow-wrap:break-word;&quot;&gt;&lt;p style=&quot;line-height:1.38;margin-top:0pt;margin-bottom:0pt;&quot; dir=&quot;ltr&quot;&gt;&lt;span style=&quot;font-size: 11pt; font-family: Arial; background-color: transparent; font-variant-numeric: normal; font-variant-east-asian: normal; vertical-align: baseline;&quot;&gt;0&lt;/span&gt;&lt;/p&gt;&lt;/td&gt;&lt;td style=&quot;vertical-align:top;background-color:#63be7b;padding:5pt 5pt 5pt 5pt;overflow:hidden;overflow-wrap:break-word;&quot;&gt;&lt;p style=&quot;line-height:1.38;margin-top:0pt;margin-bottom:0pt;&quot; dir=&quot;ltr&quot;&gt;&lt;span style=&quot;font-size: 11pt; font-family: Arial; background-color: transparent; font-variant-numeric: normal; font-variant-east-asian: normal; vertical-align: baseline;&quot;&gt;0&lt;/span&gt;&lt;/p&gt;&lt;/td&gt;&lt;td style=&quot;vertical-align:top;background-color:#63be7b;padding:5pt 5pt 5pt 5pt;overflow:hidden;overflow-wrap:break-word;&quot;&gt;&lt;p style=&quot;line-height:1.38;margin-top:0pt;margin-bottom:0pt;&quot; dir=&quot;ltr&quot;&gt;&lt;span style=&quot;font-size: 11pt; font-family: Arial; background-color: transparent; font-variant-numeric: normal; font-variant-east-asian: normal; vertical-align: baseline;&quot;&gt;0&lt;/span&gt;&lt;/p&gt;&lt;/td&gt;&lt;td style=&quot;vertical-align:top;background-color:#63be7b;padding:5pt 5pt 5pt 5pt;overflow:hidden;overflow-wrap:break-word;&quot;&gt;&lt;p style=&quot;line-height:1.38;margin-top:0pt;margin-bottom:0pt;&quot; dir=&quot;ltr&quot;&gt;&lt;span style=&quot;font-size: 11pt; font-family: Arial; background-color: transparent; font-variant-numeric: normal; font-variant-east-asian: normal; vertical-align: baseline;&quot;&gt;0&lt;/span&gt;&lt;/p&gt;&lt;/td&gt;&lt;td style=&quot;vertical-align:top;background-color:#63be7b;padding:5pt 5pt 5pt 5pt;overflow:hidden;overflow-wrap:break-word;&quot;&gt;&lt;p style=&quot;line-height:1.38;margin-top:0pt;margin-bottom:0pt;&quot; dir=&quot;ltr&quot;&gt;&lt;span style=&quot;font-size: 11pt; font-family: Arial; background-color: transparent; font-variant-numeric: normal; font-variant-east-asian: normal; vertical-align: baseline;&quot;&gt;0&lt;/span&gt;&lt;/p&gt;&lt;/td&gt;&lt;td style=&quot;vertical-align:top;background-color:#ffeb84;padding:5pt 5pt 5pt 5pt;overflow:hidden;overflow-wrap:break-word;&quot;&gt;&lt;p style=&quot;line-height:1.38;margin-top:0pt;margin-bottom:0pt;&quot; dir=&quot;ltr&quot;&gt;&lt;span style=&quot;font-size: 11pt; font-family: Arial; background-color: transparent; font-variant-numeric: normal; font-variant-east-asian: normal; vertical-align: baseline;&quot;&gt;1&lt;/span&gt;&lt;/p&gt;&lt;/td&gt;&lt;/tr&gt;&lt;tr style=&quot;height:24.25pt&quot;&gt;&lt;td style=&quot;vertical-align:top;background-color:#ffeb84;padding:5pt 5pt 5pt 5pt;overflow:hidden;overflow-wrap:break-word;&quot;&gt;&lt;p style=&quot;line-height:1.38;margin-top:0pt;margin-bottom:0pt;&quot; dir=&quot;ltr&quot;&gt;&lt;span style=&quot;font-size: 11pt; font-family: Arial; background-color: transparent; font-variant-numeric: normal; font-variant-east-asian: normal; vertical-align: baseline;&quot;&gt;1&lt;/span&gt;&lt;/p&gt;&lt;/td&gt;&lt;td style=&quot;vertical-align:top;background-color:#ffeb84;padding:5pt 5pt 5pt 5pt;overflow:hidden;overflow-wrap:break-word;&quot;&gt;&lt;p style=&quot;line-height:1.38;margin-top:0pt;margin-bottom:0pt;&quot; dir=&quot;ltr&quot;&gt;&lt;span style=&quot;font-size: 11pt; font-family: Arial; background-color: transparent; font-variant-numeric: normal; font-variant-east-asian: normal; vertical-align: baseline;&quot;&gt;1&lt;/span&gt;&lt;/p&gt;&lt;/td&gt;&lt;td style=&quot;vertical-align:top;background-color:#ffeb84;padding:5pt 5pt 5pt 5pt;overflow:hidden;overflow-wrap:break-word;&quot;&gt;&lt;p style=&quot;line-height:1.38;margin-top:0pt;margin-bottom:0pt;&quot; dir=&quot;ltr&quot;&gt;&lt;span style=&quot;font-size: 11pt; font-family: Arial; background-color: transparent; font-variant-numeric: normal; font-variant-east-asian: normal; vertical-align: baseline;&quot;&gt;1&lt;/span&gt;&lt;/p&gt;&lt;/td&gt;&lt;td style=&quot;vertical-align:top;background-color:#63be7b;padding:5pt 5pt 5pt 5pt;overflow:hidden;overflow-wrap:break-word;&quot;&gt;&lt;p style=&quot;line-height:1.38;margin-top:0pt;margin-bottom:0pt;&quot; dir=&quot;ltr&quot;&gt;&lt;span style=&quot;font-size: 11pt; font-family: Arial; background-color: transparent; font-variant-numeric: normal; font-variant-east-asian: normal; vertical-align: baseline;&quot;&gt;0&lt;/span&gt;&lt;/p&gt;&lt;/td&gt;&lt;td style=&quot;vertical-align:top;background-color:#ffeb84;padding:5pt 5pt 5pt 5pt;overflow:hidden;overflow-wrap:break-word;&quot;&gt;&lt;p style=&quot;line-height:1.38;margin-top:0pt;margin-bottom:0pt;&quot; dir=&quot;ltr&quot;&gt;&lt;span style=&quot;font-size: 11pt; font-family: Arial; background-color: transparent; font-variant-numeric: normal; font-variant-east-asian: normal; vertical-align: baseline;&quot;&gt;1&lt;/span&gt;&lt;/p&gt;&lt;/td&gt;&lt;td style=&quot;vertical-align:top;background-color:#ffeb84;padding:5pt 5pt 5pt 5pt;overflow:hidden;overflow-wrap:break-word;&quot;&gt;&lt;p style=&quot;line-height:1.38;margin-top:0pt;margin-bottom:0pt;&quot; dir=&quot;ltr&quot;&gt;&lt;span style=&quot;font-size: 11pt; font-family: Arial; background-color: transparent; font-variant-numeric: normal; font-variant-east-asian: normal; vertical-align: baseline;&quot;&gt;1&lt;/span&gt;&lt;/p&gt;&lt;/td&gt;&lt;td style=&quot;vertical-align:top;background-color:#ffeb84;padding:5pt 5pt 5pt 5pt;overflow:hidden;overflow-wrap:break-word;&quot;&gt;&lt;p style=&quot;line-height:1.38;margin-top:0pt;margin-bottom:0pt;&quot; dir=&quot;ltr&quot;&gt;&lt;span style=&quot;font-size: 11pt; font-family: Arial; background-color: transparent; font-variant-numeric: normal; font-variant-east-asian: normal; vertical-align: baseline;&quot;&gt;1&lt;/span&gt;&lt;/p&gt;&lt;/td&gt;&lt;td style=&quot;vertical-align:top;background-color:#ffeb84;padding:5pt 5pt 5pt 5pt;overflow:hidden;overflow-wrap:break-word;&quot;&gt;&lt;p style=&quot;line-height:1.38;margin-top:0pt;margin-bottom:0pt;&quot; dir=&quot;ltr&quot;&gt;&lt;span style=&quot;font-size: 11pt; font-family: Arial; background-color: transparent; font-variant-numeric: normal; font-variant-east-asian: normal; vertical-align: baseline;&quot;&gt;1&lt;/span&gt;&lt;/p&gt;&lt;/td&gt;&lt;td style=&quot;vertical-align:top;background-color:#ffeb84;padding:5pt 5pt 5pt 5pt;overflow:hidden;overflow-wrap:break-word;&quot;&gt;&lt;p style=&quot;line-height:1.38;margin-top:0pt;margin-bottom:0pt;&quot; dir=&quot;ltr&quot;&gt;&lt;span style=&quot;font-size: 11pt; font-family: Arial; background-color: transparent; font-variant-numeric: normal; font-variant-east-asian: normal; vertical-align: baseline;&quot;&gt;1&lt;/span&gt;&lt;/p&gt;&lt;/td&gt;&lt;td style=&quot;vertical-align:top;background-color:#ffeb84;padding:5pt 5pt 5pt 5pt;overflow:hidden;overflow-wrap:break-word;&quot;&gt;&lt;p style=&quot;line-height:1.38;margin-top:0pt;margin-bottom:0pt;&quot; dir=&quot;ltr&quot;&gt;&lt;span style=&quot;font-size: 11pt; font-family: Arial; background-color: transparent; font-variant-numeric: normal; font-variant-east-asian: normal; vertical-align: baseline;&quot;&gt;1&lt;/span&gt;&lt;/p&gt;&lt;/td&gt;&lt;td style=&quot;vertical-align:top;background-color:#ffeb84;padding:5pt 5pt 5pt 5pt;overflow:hidden;overflow-wrap:break-word;&quot;&gt;&lt;p style=&quot;line-height:1.38;margin-top:0pt;margin-bottom:0pt;&quot; dir=&quot;ltr&quot;&gt;&lt;span style=&quot;font-size: 11pt; font-family: Arial; background-color: transparent; font-variant-numeric: normal; font-variant-east-asian: normal; vertical-align: baseline;&quot;&gt;1&lt;/span&gt;&lt;/p&gt;&lt;/td&gt;&lt;td style=&quot;vertical-align:top;background-color:#63be7b;padding:5pt 5pt 5pt 5pt;overflow:hidden;overflow-wrap:break-word;&quot;&gt;&lt;p style=&quot;line-height:1.38;margin-top:0pt;margin-bottom:0pt;&quot; dir=&quot;ltr&quot;&gt;&lt;span style=&quot;font-size: 11pt; font-family: Arial; background-color: transparent; font-variant-numeric: normal; font-variant-east-asian: normal; vertical-align: baseline;&quot;&gt;0&lt;/span&gt;&lt;/p&gt;&lt;/td&gt;&lt;td style=&quot;vertical-align:top;background-color:#ffeb84;padding:5pt 5pt 5pt 5pt;overflow:hidden;overflow-wrap:break-word;&quot;&gt;&lt;p style=&quot;line-height:1.38;margin-top:0pt;margin-bottom:0pt;&quot; dir=&quot;ltr&quot;&gt;&lt;span style=&quot;font-size: 11pt; font-family: Arial; background-color: transparent; font-variant-numeric: normal; font-variant-east-asian: normal; vertical-align: baseline;&quot;&gt;1&lt;/span&gt;&lt;/p&gt;&lt;/td&gt;&lt;td style=&quot;vertical-align:top;background-color:#63be7b;padding:5pt 5pt 5pt 5pt;overflow:hidden;overflow-wrap:break-word;&quot;&gt;&lt;p style=&quot;line-height:1.38;margin-top:0pt;margin-bottom:0pt;&quot; dir=&quot;ltr&quot;&gt;&lt;span style=&quot;font-size: 11pt; font-family: Arial; background-color: transparent; font-variant-numeric: normal; font-variant-east-asian: normal; vertical-align: baseline;&quot;&gt;0&lt;/span&gt;&lt;/p&gt;&lt;/td&gt;&lt;td style=&quot;vertical-align:top;background-color:#ffeb84;padding:5pt 5pt 5pt 5pt;overflow:hidden;overflow-wrap:break-word;&quot;&gt;&lt;p style=&quot;line-height:1.38;margin-top:0pt;margin-bottom:0pt;&quot; dir=&quot;ltr&quot;&gt;&lt;span style=&quot;font-size: 11pt; font-family: Arial; background-color: transparent; font-variant-numeric: normal; font-variant-east-asian: normal; vertical-align: baseline;&quot;&gt;1&lt;/span&gt;&lt;/p&gt;&lt;/td&gt;&lt;/tr&gt;&lt;tr style=&quot;height:24.25pt&quot;&gt;&lt;td style=&quot;vertical-align:top;background-color:#ffeb84;padding:5pt 5pt 5pt 5pt;overflow:hidden;overflow-wrap:break-word;&quot;&gt;&lt;p style=&quot;line-height:1.38;margin-top:0pt;margin-bottom:0pt;&quot; dir=&quot;ltr&quot;&gt;&lt;span style=&quot;font-size: 11pt; font-family: Arial; background-color: transparent; font-variant-numeric: normal; font-variant-east-asian: normal; vertical-align: baseline;&quot;&gt;1&lt;/span&gt;&lt;/p&gt;&lt;/td&gt;&lt;td style=&quot;vertical-align:top;background-color:#63be7b;padding:5pt 5pt 5pt 5pt;overflow:hidden;overflow-wrap:break-word;&quot;&gt;&lt;p style=&quot;line-height:1.38;margin-top:0pt;margin-bottom:0pt;&quot; dir=&quot;ltr&quot;&gt;&lt;span style=&quot;font-size: 11pt; font-family: Arial; background-color: transparent; font-variant-numeric: normal; font-variant-east-asian: normal; vertical-align: baseline;&quot;&gt;0&lt;/span&gt;&lt;/p&gt;&lt;/td&gt;&lt;td style=&quot;vertical-align:top;background-color:#63be7b;padding:5pt 5pt 5pt 5pt;overflow:hidden;overflow-wrap:break-word;&quot;&gt;&lt;p style=&quot;line-height:1.38;margin-top:0pt;margin-bottom:0pt;&quot; dir=&quot;ltr&quot;&gt;&lt;span style=&quot;font-size: 11pt; font-family: Arial; background-color: transparent; font-variant-numeric: normal; font-variant-east-asian: normal; vertical-align: baseline;&quot;&gt;0&lt;/span&gt;&lt;/p&gt;&lt;/td&gt;&lt;td style=&quot;vertical-align:top;background-color:#63be7b;padding:5pt 5pt 5pt 5pt;overflow:hidden;overflow-wrap:break-word;&quot;&gt;&lt;p style=&quot;line-height:1.38;margin-top:0pt;margin-bottom:0pt;&quot; dir=&quot;ltr&quot;&gt;&lt;span style=&quot;font-size: 11pt; font-family: Arial; background-color: transparent; font-variant-numeric: normal; font-variant-east-asian: normal; vertical-align: baseline;&quot;&gt;0&lt;/span&gt;&lt;/p&gt;&lt;/td&gt;&lt;td style=&quot;vertical-align:top;background-color:#63be7b;padding:5pt 5pt 5pt 5pt;overflow:hidden;overflow-wrap:break-word;&quot;&gt;&lt;p style=&quot;line-height:1.38;margin-top:0pt;margin-bottom:0pt;&quot; dir=&quot;ltr&quot;&gt;&lt;span style=&quot;font-size: 11pt; font-family: Arial; background-color: transparent; font-variant-numeric: normal; font-variant-east-asian: normal; vertical-align: baseline;&quot;&gt;0&lt;/span&gt;&lt;/p&gt;&lt;/td&gt;&lt;td style=&quot;vertical-align:top;background-color:#63be7b;padding:5pt 5pt 5pt 5pt;overflow:hidden;overflow-wrap:break-word;&quot;&gt;&lt;p style=&quot;line-height:1.38;margin-top:0pt;margin-bottom:0pt;&quot; dir=&quot;ltr&quot;&gt;&lt;span style=&quot;font-size: 11pt; font-family: Arial; background-color: transparent; font-variant-numeric: normal; font-variant-east-asian: normal; vertical-align: baseline;&quot;&gt;0&lt;/span&gt;&lt;/p&gt;&lt;/td&gt;&lt;td style=&quot;vertical-align:top;background-color:#63be7b;padding:5pt 5pt 5pt 5pt;overflow:hidden;overflow-wrap:break-word;&quot;&gt;&lt;p style=&quot;line-height:1.38;margin-top:0pt;margin-bottom:0pt;&quot; dir=&quot;ltr&quot;&gt;&lt;span style=&quot;font-size: 11pt; font-family: Arial; background-color: transparent; font-variant-numeric: normal; font-variant-east-asian: normal; vertical-align: baseline;&quot;&gt;0&lt;/span&gt;&lt;/p&gt;&lt;/td&gt;&lt;td style=&quot;vertical-align:top;background-color:#63be7b;padding:5pt 5pt 5pt 5pt;overflow:hidden;overflow-wrap:break-word;&quot;&gt;&lt;p style=&quot;line-height:1.38;margin-top:0pt;margin-bottom:0pt;&quot; dir=&quot;ltr&quot;&gt;&lt;span style=&quot;font-size: 11pt; font-family: Arial; background-color: transparent; font-variant-numeric: normal; font-variant-east-asian: normal; vertical-align: baseline;&quot;&gt;0&lt;/span&gt;&lt;/p&gt;&lt;/td&gt;&lt;td style=&quot;vertical-align:top;background-color:#ffeb84;padding:5pt 5pt 5pt 5pt;overflow:hidden;overflow-wrap:break-word;&quot;&gt;&lt;p style=&quot;line-height:1.38;margin-top:0pt;margin-bottom:0pt;&quot; dir=&quot;ltr&quot;&gt;&lt;span style=&quot;font-size: 11pt; font-family: Arial; background-color: transparent; font-variant-numeric: normal; font-variant-east-asian: normal; vertical-align: baseline;&quot;&gt;1&lt;/span&gt;&lt;/p&gt;&lt;/td&gt;&lt;td style=&quot;vertical-align:top;background-color:#63be7b;padding:5pt 5pt 5pt 5pt;overflow:hidden;overflow-wrap:break-word;&quot;&gt;&lt;p style=&quot;line-height:1.38;margin-top:0pt;margin-bottom:0pt;&quot; dir=&quot;ltr&quot;&gt;&lt;span style=&quot;font-size: 11pt; font-family: Arial; background-color: transparent; font-variant-numeric: normal; font-variant-east-asian: normal; vertical-align: baseline;&quot;&gt;0&lt;/span&gt;&lt;/p&gt;&lt;/td&gt;&lt;td style=&quot;vertical-align:top;background-color:#63be7b;padding:5pt 5pt 5pt 5pt;overflow:hidden;overflow-wrap:break-word;&quot;&gt;&lt;p style=&quot;line-height:1.38;margin-top:0pt;margin-bottom:0pt;&quot; dir=&quot;ltr&quot;&gt;&lt;span style=&quot;font-size: 11pt; font-family: Arial; background-color: transparent; font-variant-numeric: normal; font-variant-east-asian: normal; vertical-align: baseline;&quot;&gt;0&lt;/span&gt;&lt;/p&gt;&lt;/td&gt;&lt;td style=&quot;vertical-align:top;background-color:#63be7b;padding:5pt 5pt 5pt 5pt;overflow:hidden;overflow-wrap:break-word;&quot;&gt;&lt;p style=&quot;line-height:1.38;margin-top:0pt;margin-bottom:0pt;&quot; dir=&quot;ltr&quot;&gt;&lt;span style=&quot;font-size: 11pt; font-family: Arial; background-color: transparent; font-variant-numeric: normal; font-variant-east-asian: normal; vertical-align: baseline;&quot;&gt;0&lt;/span&gt;&lt;/p&gt;&lt;/td&gt;&lt;td style=&quot;vertical-align:top;background-color:#ffeb84;padding:5pt 5pt 5pt 5pt;overflow:hidden;overflow-wrap:break-word;&quot;&gt;&lt;p style=&quot;line-height:1.38;margin-top:0pt;margin-bottom:0pt;&quot; dir=&quot;ltr&quot;&gt;&lt;span style=&quot;font-size: 11pt; font-family: Arial; background-color: transparent; font-variant-numeric: normal; font-variant-east-asian: normal; vertical-align: baseline;&quot;&gt;1&lt;/span&gt;&lt;/p&gt;&lt;/td&gt;&lt;td style=&quot;vertical-align:top;background-color:#63be7b;padding:5pt 5pt 5pt 5pt;overflow:hidden;overflow-wrap:break-word;&quot;&gt;&lt;p style=&quot;line-height:1.38;margin-top:0pt;margin-bottom:0pt;&quot; dir=&quot;ltr&quot;&gt;&lt;span style=&quot;font-size: 11pt; font-family: Arial; background-color: transparent; font-variant-numeric: normal; font-variant-east-asian: normal; vertical-align: baseline;&quot;&gt;0&lt;/span&gt;&lt;/p&gt;&lt;/td&gt;&lt;td style=&quot;vertical-align:top;background-color:#ffeb84;padding:5pt 5pt 5pt 5pt;overflow:hidden;overflow-wrap:break-word;&quot;&gt;&lt;p style=&quot;line-height:1.38;margin-top:0pt;margin-bottom:0pt;&quot; dir=&quot;ltr&quot;&gt;&lt;span style=&quot;font-size: 11pt; font-family: Arial; background-color: transparent; font-variant-numeric: normal; font-variant-east-asian: normal; vertical-align: baseline;&quot;&gt;1&lt;/span&gt;&lt;/p&gt;&lt;/td&gt;&lt;/tr&gt;&lt;tr style=&quot;height:24.25pt&quot;&gt;&lt;td style=&quot;vertical-align:top;background-color:#ffeb84;padding:5pt 5pt 5pt 5pt;overflow:hidden;overflow-wrap:break-word;&quot;&gt;&lt;p style=&quot;line-height:1.38;margin-top:0pt;margin-bottom:0pt;&quot; dir=&quot;ltr&quot;&gt;&lt;span style=&quot;font-size: 11pt; font-family: Arial; background-color: transparent; font-variant-numeric: normal; font-variant-east-asian: normal; vertical-align: baseline;&quot;&gt;1&lt;/span&gt;&lt;/p&gt;&lt;/td&gt;&lt;td style=&quot;vertical-align:top;background-color:#ffeb84;padding:5pt 5pt 5pt 5pt;overflow:hidden;overflow-wrap:break-word;&quot;&gt;&lt;p style=&quot;line-height:1.38;margin-top:0pt;margin-bottom:0pt;&quot; dir=&quot;ltr&quot;&gt;&lt;span style=&quot;font-size: 11pt; font-family: Arial; background-color: transparent; font-variant-numeric: normal; font-variant-east-asian: normal; vertical-align: baseline;&quot;&gt;1&lt;/span&gt;&lt;/p&gt;&lt;/td&gt;&lt;td style=&quot;vertical-align:top;background-color:#ffeb84;padding:5pt 5pt 5pt 5pt;overflow:hidden;overflow-wrap:break-word;&quot;&gt;&lt;p style=&quot;line-height:1.38;margin-top:0pt;margin-bottom:0pt;&quot; dir=&quot;ltr&quot;&gt;&lt;span style=&quot;font-size: 11pt; font-family: Arial; background-color: transparent; font-variant-numeric: normal; font-variant-east-asian: normal; vertical-align: baseline;&quot;&gt;1&lt;/span&gt;&lt;/p&gt;&lt;/td&gt;&lt;td style=&quot;vertical-align:top;background-color:#63be7b;padding:5pt 5pt 5pt 5pt;overflow:hidden;overflow-wrap:break-word;&quot;&gt;&lt;p style=&quot;line-height:1.38;margin-top:0pt;margin-bottom:0pt;&quot; dir=&quot;ltr&quot;&gt;&lt;span style=&quot;font-size: 11pt; font-family: Arial; background-color: transparent; font-variant-numeric: normal; font-variant-east-asian: normal; vertical-align: baseline;&quot;&gt;0&lt;/span&gt;&lt;/p&gt;&lt;/td&gt;&lt;td style=&quot;vertical-align:top;background-color:#ffeb84;padding:5pt 5pt 5pt 5pt;overflow:hidden;overflow-wrap:break-word;&quot;&gt;&lt;p style=&quot;line-height:1.38;margin-top:0pt;margin-bottom:0pt;&quot; dir=&quot;ltr&quot;&gt;&lt;span style=&quot;font-size: 11pt; font-family: Arial; background-color: transparent; font-variant-numeric: normal; font-variant-east-asian: normal; vertical-align: baseline;&quot;&gt;1&lt;/span&gt;&lt;/p&gt;&lt;/td&gt;&lt;td style=&quot;vertical-align:top;background-color:#ffeb84;padding:5pt 5pt 5pt 5pt;overflow:hidden;overflow-wrap:break-word;&quot;&gt;&lt;p style=&quot;line-height:1.38;margin-top:0pt;margin-bottom:0pt;&quot; dir=&quot;ltr&quot;&gt;&lt;span style=&quot;font-size: 11pt; font-family: Arial; background-color: transparent; font-variant-numeric: normal; font-variant-east-asian: normal; vertical-align: baseline;&quot;&gt;1&lt;/span&gt;&lt;/p&gt;&lt;/td&gt;&lt;td style=&quot;vertical-align:top;background-color:#ffeb84;padding:5pt 5pt 5pt 5pt;overflow:hidden;overflow-wrap:break-word;&quot;&gt;&lt;p style=&quot;line-height:1.38;margin-top:0pt;margin-bottom:0pt;&quot; dir=&quot;ltr&quot;&gt;&lt;span style=&quot;font-size: 11pt; font-family: Arial; background-color: transparent; font-variant-numeric: normal; font-variant-east-asian: normal; vertical-align: baseline;&quot;&gt;1&lt;/span&gt;&lt;/p&gt;&lt;/td&gt;&lt;td style=&quot;vertical-align:top;background-color:#63be7b;padding:5pt 5pt 5pt 5pt;overflow:hidden;overflow-wrap:break-word;&quot;&gt;&lt;p style=&quot;line-height:1.38;margin-top:0pt;margin-bottom:0pt;&quot; dir=&quot;ltr&quot;&gt;&lt;span style=&quot;font-size: 11pt; font-family: Arial; background-color: transparent; font-variant-numeric: normal; font-variant-east-asian: normal; vertical-align: baseline;&quot;&gt;0&lt;/span&gt;&lt;/p&gt;&lt;/td&gt;&lt;td style=&quot;vertical-align:top;background-color:#ffeb84;padding:5pt 5pt 5pt 5pt;overflow:hidden;overflow-wrap:break-word;&quot;&gt;&lt;p style=&quot;line-height:1.38;margin-top:0pt;margin-bottom:0pt;&quot; dir=&quot;ltr&quot;&gt;&lt;span style=&quot;font-size: 11pt; font-family: Arial; background-color: transparent; font-variant-numeric: normal; font-variant-east-asian: normal; vertical-align: baseline;&quot;&gt;1&lt;/span&gt;&lt;/p&gt;&lt;/td&gt;&lt;td style=&quot;vertical-align:top;background-color:#ffeb84;padding:5pt 5pt 5pt 5pt;overflow:hidden;overflow-wrap:break-word;&quot;&gt;&lt;p style=&quot;line-height:1.38;margin-top:0pt;margin-bottom:0pt;&quot; dir=&quot;ltr&quot;&gt;&lt;span style=&quot;font-size: 11pt; font-family: Arial; background-color: transparent; font-variant-numeric: normal; font-variant-east-asian: normal; vertical-align: baseline;&quot;&gt;1&lt;/span&gt;&lt;/p&gt;&lt;/td&gt;&lt;td style=&quot;vertical-align:top;background-color:#ffeb84;padding:5pt 5pt 5pt 5pt;overflow:hidden;overflow-wrap:break-word;&quot;&gt;&lt;p style=&quot;line-height:1.38;margin-top:0pt;margin-bottom:0pt;&quot; dir=&quot;ltr&quot;&gt;&lt;span style=&quot;font-size: 11pt; font-family: Arial; background-color: transparent; font-variant-numeric: normal; font-variant-east-asian: normal; vertical-align: baseline;&quot;&gt;1&lt;/span&gt;&lt;/p&gt;&lt;/td&gt;&lt;td style=&quot;vertical-align:top;background-color:#63be7b;padding:5pt 5pt 5pt 5pt;overflow:hidden;overflow-wrap:break-word;&quot;&gt;&lt;p style=&quot;line-height:1.38;margin-top:0pt;margin-bottom:0pt;&quot; dir=&quot;ltr&quot;&gt;&lt;span style=&quot;font-size: 11pt; font-family: Arial; background-color: transparent; font-variant-numeric: normal; font-variant-east-asian: normal; vertical-align: baseline;&quot;&gt;0&lt;/span&gt;&lt;/p&gt;&lt;/td&gt;&lt;td style=&quot;vertical-align:top;background-color:#ffeb84;padding:5pt 5pt 5pt 5pt;overflow:hidden;overflow-wrap:break-word;&quot;&gt;&lt;p style=&quot;line-height:1.38;margin-top:0pt;margin-bottom:0pt;&quot; dir=&quot;ltr&quot;&gt;&lt;span style=&quot;font-size: 11pt; font-family: Arial; background-color: transparent; font-variant-numeric: normal; font-variant-east-asian: normal; vertical-align: baseline;&quot;&gt;1&lt;/span&gt;&lt;/p&gt;&lt;/td&gt;&lt;td style=&quot;vertical-align:top;background-color:#63be7b;padding:5pt 5pt 5pt 5pt;overflow:hidden;overflow-wrap:break-word;&quot;&gt;&lt;p style=&quot;line-height:1.38;margin-top:0pt;margin-bottom:0pt;&quot; dir=&quot;ltr&quot;&gt;&lt;span style=&quot;font-size: 11pt; font-family: Arial; background-color: transparent; font-variant-numeric: normal; font-variant-east-asian: normal; vertical-align: baseline;&quot;&gt;0&lt;/span&gt;&lt;/p&gt;&lt;/td&gt;&lt;td style=&quot;vertical-align:top;background-color:#ffeb84;padding:5pt 5pt 5pt 5pt;overflow:hidden;overflow-wrap:break-word;&quot;&gt;&lt;p style=&quot;line-height:1.38;margin-top:0pt;margin-bottom:0pt;&quot; dir=&quot;ltr&quot;&gt;&lt;span style=&quot;font-size: 11pt; font-family: Arial; background-color: transparent; font-variant-numeric: normal; font-variant-east-asian: normal; vertical-align: baseline;&quot;&gt;1&lt;/span&gt;&lt;/p&gt;&lt;/td&gt;&lt;/tr&gt;&lt;tr style=&quot;height:24.25pt&quot;&gt;&lt;td style=&quot;vertical-align:top;background-color:#ffeb84;padding:5pt 5pt 5pt 5pt;overflow:hidden;overflow-wrap:break-word;&quot;&gt;&lt;p style=&quot;line-height:1.38;margin-top:0pt;margin-bottom:0pt;&quot; dir=&quot;ltr&quot;&gt;&lt;span style=&quot;font-size: 11pt; font-family: Arial; background-color: transparent; font-variant-numeric: normal; font-variant-east-asian: normal; vertical-align: baseline;&quot;&gt;1&lt;/span&gt;&lt;/p&gt;&lt;/td&gt;&lt;td style=&quot;vertical-align:top;background-color:#63be7b;padding:5pt 5pt 5pt 5pt;overflow:hidden;overflow-wrap:break-word;&quot;&gt;&lt;p style=&quot;line-height:1.38;margin-top:0pt;margin-bottom:0pt;&quot; dir=&quot;ltr&quot;&gt;&lt;span style=&quot;font-size: 11pt; font-family: Arial; background-color: transparent; font-variant-numeric: normal; font-variant-east-asian: normal; vertical-align: baseline;&quot;&gt;0&lt;/span&gt;&lt;/p&gt;&lt;/td&gt;&lt;td style=&quot;vertical-align:top;background-color:#ffeb84;padding:5pt 5pt 5pt 5pt;overflow:hidden;overflow-wrap:break-word;&quot;&gt;&lt;p style=&quot;line-height:1.38;margin-top:0pt;margin-bottom:0pt;&quot; dir=&quot;ltr&quot;&gt;&lt;span style=&quot;font-size: 11pt; font-family: Arial; background-color: transparent; font-variant-numeric: normal; font-variant-east-asian: normal; vertical-align: baseline;&quot;&gt;1&lt;/span&gt;&lt;/p&gt;&lt;/td&gt;&lt;td style=&quot;vertical-align:top;background-color:#63be7b;padding:5pt 5pt 5pt 5pt;overflow:hidden;overflow-wrap:break-word;&quot;&gt;&lt;p style=&quot;line-height:1.38;margin-top:0pt;margin-bottom:0pt;&quot; dir=&quot;ltr&quot;&gt;&lt;span style=&quot;font-size: 11pt; font-family: Arial; background-color: transparent; font-variant-numeric: normal; font-variant-east-asian: normal; vertical-align: baseline;&quot;&gt;0&lt;/span&gt;&lt;/p&gt;&lt;/td&gt;&lt;td style=&quot;vertical-align:top;background-color:#63be7b;padding:5pt 5pt 5pt 5pt;overflow:hidden;overflow-wrap:break-word;&quot;&gt;&lt;p style=&quot;line-height:1.38;margin-top:0pt;margin-bottom:0pt;&quot; dir=&quot;ltr&quot;&gt;&lt;span style=&quot;font-size: 11pt; font-family: Arial; background-color: transparent; font-variant-numeric: normal; font-variant-east-asian: normal; vertical-align: baseline;&quot;&gt;0&lt;/span&gt;&lt;/p&gt;&lt;/td&gt;&lt;td style=&quot;vertical-align:top;background-color:#63be7b;padding:5pt 5pt 5pt 5pt;overflow:hidden;overflow-wrap:break-word;&quot;&gt;&lt;p style=&quot;line-height:1.38;margin-top:0pt;margin-bottom:0pt;&quot; dir=&quot;ltr&quot;&gt;&lt;span style=&quot;font-size: 11pt; font-family: Arial; background-color: transparent; font-variant-numeric: normal; font-variant-east-asian: normal; vertical-align: baseline;&quot;&gt;0&lt;/span&gt;&lt;/p&gt;&lt;/td&gt;&lt;td style=&quot;vertical-align:top;background-color:#ffeb84;padding:5pt 5pt 5pt 5pt;overflow:hidden;overflow-wrap:break-word;&quot;&gt;&lt;p style=&quot;line-height:1.38;margin-top:0pt;margin-bottom:0pt;&quot; dir=&quot;ltr&quot;&gt;&lt;span style=&quot;font-size: 11pt; font-family: Arial; background-color: transparent; font-variant-numeric: normal; font-variant-east-asian: normal; vertical-align: baseline;&quot;&gt;1&lt;/span&gt;&lt;/p&gt;&lt;/td&gt;&lt;td style=&quot;vertical-align:top;background-color:#63be7b;padding:5pt 5pt 5pt 5pt;overflow:hidden;overflow-wrap:break-word;&quot;&gt;&lt;p style=&quot;line-height:1.38;margin-top:0pt;margin-bottom:0pt;&quot; dir=&quot;ltr&quot;&gt;&lt;span style=&quot;font-size: 11pt; font-family: Arial; background-color: transparent; font-variant-numeric: normal; font-variant-east-asian: normal; vertical-align: baseline;&quot;&gt;0&lt;/span&gt;&lt;/p&gt;&lt;/td&gt;&lt;td style=&quot;vertical-align:top;background-color:#63be7b;padding:5pt 5pt 5pt 5pt;overflow:hidden;overflow-wrap:break-word;&quot;&gt;&lt;p style=&quot;line-height:1.38;margin-top:0pt;margin-bottom:0pt;&quot; dir=&quot;ltr&quot;&gt;&lt;span style=&quot;font-size: 11pt; font-family: Arial; background-color: transparent; font-variant-numeric: normal; font-variant-east-asian: normal; vertical-align: baseline;&quot;&gt;0&lt;/span&gt;&lt;/p&gt;&lt;/td&gt;&lt;td style=&quot;vertical-align:top;background-color:#63be7b;padding:5pt 5pt 5pt 5pt;overflow:hidden;overflow-wrap:break-word;&quot;&gt;&lt;p style=&quot;line-height:1.38;margin-top:0pt;margin-bottom:0pt;&quot; dir=&quot;ltr&quot;&gt;&lt;span style=&quot;font-size: 11pt; font-family: Arial; background-color: transparent; font-variant-numeric: normal; font-variant-east-asian: normal; vertical-align: baseline;&quot;&gt;0&lt;/span&gt;&lt;/p&gt;&lt;/td&gt;&lt;td style=&quot;vertical-align:top;background-color:#63be7b;padding:5pt 5pt 5pt 5pt;overflow:hidden;overflow-wrap:break-word;&quot;&gt;&lt;p style=&quot;line-height:1.38;margin-top:0pt;margin-bottom:0pt;&quot; dir=&quot;ltr&quot;&gt;&lt;span style=&quot;font-size: 11pt; font-family: Arial; background-color: transparent; font-variant-numeric: normal; font-variant-east-asian: normal; vertical-align: baseline;&quot;&gt;0&lt;/span&gt;&lt;/p&gt;&lt;/td&gt;&lt;td style=&quot;vertical-align:top;background-color:#63be7b;padding:5pt 5pt 5pt 5pt;overflow:hidden;overflow-wrap:break-word;&quot;&gt;&lt;p style=&quot;line-height:1.38;margin-top:0pt;margin-bottom:0pt;&quot; dir=&quot;ltr&quot;&gt;&lt;span style=&quot;font-size: 11pt; font-family: Arial; background-color: transparent; font-variant-numeric: normal; font-variant-east-asian: normal; vertical-align: baseline;&quot;&gt;0&lt;/span&gt;&lt;/p&gt;&lt;/td&gt;&lt;td style=&quot;vertical-align:top;background-color:#ffeb84;padding:5pt 5pt 5pt 5pt;overflow:hidden;overflow-wrap:break-word;&quot;&gt;&lt;p style=&quot;line-height:1.38;margin-top:0pt;margin-bottom:0pt;&quot; dir=&quot;ltr&quot;&gt;&lt;span style=&quot;font-size: 11pt; font-family: Arial; background-color: transparent; font-variant-numeric: normal; font-variant-east-asian: normal; vertical-align: baseline;&quot;&gt;1&lt;/span&gt;&lt;/p&gt;&lt;/td&gt;&lt;td style=&quot;vertical-align:top;background-color:#63be7b;padding:5pt 5pt 5pt 5pt;overflow:hidden;overflow-wrap:break-word;&quot;&gt;&lt;p style=&quot;line-height:1.38;margin-top:0pt;margin-bottom:0pt;&quot; dir=&quot;ltr&quot;&gt;&lt;span style=&quot;font-size: 11pt; font-family: Arial; background-color: transparent; font-variant-numeric: normal; font-variant-east-asian: normal; vertical-align: baseline;&quot;&gt;0&lt;/span&gt;&lt;/p&gt;&lt;/td&gt;&lt;td style=&quot;vertical-align:top;background-color:#ffeb84;padding:5pt 5pt 5pt 5pt;overflow:hidden;overflow-wrap:break-word;&quot;&gt;&lt;p style=&quot;line-height:1.38;margin-top:0pt;margin-bottom:0pt;&quot; dir=&quot;ltr&quot;&gt;&lt;span style=&quot;font-size: 11pt; font-family: Arial; background-color: transparent; font-variant-numeric: normal; font-variant-east-asian: normal; vertical-align: baseline;&quot;&gt;1&lt;/span&gt;&lt;/p&gt;&lt;/td&gt;&lt;/tr&gt;&lt;tr style=&quot;height:24.25pt&quot;&gt;&lt;td style=&quot;vertical-align:top;background-color:#ffeb84;padding:5pt 5pt 5pt 5pt;overflow:hidden;overflow-wrap:break-word;&quot;&gt;&lt;p style=&quot;line-height:1.38;margin-top:0pt;margin-bottom:0pt;&quot; dir=&quot;ltr&quot;&gt;&lt;span style=&quot;font-size: 11pt; font-family: Arial; background-color: transparent; font-variant-numeric: normal; font-variant-east-asian: normal; vertical-align: baseline;&quot;&gt;1&lt;/span&gt;&lt;/p&gt;&lt;/td&gt;&lt;td style=&quot;vertical-align:top;background-color:#63be7b;padding:5pt 5pt 5pt 5pt;overflow:hidden;overflow-wrap:break-word;&quot;&gt;&lt;p style=&quot;line-height:1.38;margin-top:0pt;margin-bottom:0pt;&quot; dir=&quot;ltr&quot;&gt;&lt;span style=&quot;font-size: 11pt; font-family: Arial; background-color: transparent; font-variant-numeric: normal; font-variant-east-asian: normal; vertical-align: baseline;&quot;&gt;0&lt;/span&gt;&lt;/p&gt;&lt;/td&gt;&lt;td style=&quot;vertical-align:top;background-color:#ffeb84;padding:5pt 5pt 5pt 5pt;overflow:hidden;overflow-wrap:break-word;&quot;&gt;&lt;p style=&quot;line-height:1.38;margin-top:0pt;margin-bottom:0pt;&quot; dir=&quot;ltr&quot;&gt;&lt;span style=&quot;font-size: 11pt; font-family: Arial; background-color: transparent; font-variant-numeric: normal; font-variant-east-asian: normal; vertical-align: baseline;&quot;&gt;1&lt;/span&gt;&lt;/p&gt;&lt;/td&gt;&lt;td style=&quot;vertical-align:top;background-color:#63be7b;padding:5pt 5pt 5pt 5pt;overflow:hidden;overflow-wrap:break-word;&quot;&gt;&lt;p style=&quot;line-height:1.38;margin-top:0pt;margin-bottom:0pt;&quot; dir=&quot;ltr&quot;&gt;&lt;span style=&quot;font-size: 11pt; font-family: Arial; background-color: transparent; font-variant-numeric: normal; font-variant-east-asian: normal; vertical-align: baseline;&quot;&gt;0&lt;/span&gt;&lt;/p&gt;&lt;/td&gt;&lt;td style=&quot;vertical-align:top;background-color:#ffeb84;padding:5pt 5pt 5pt 5pt;overflow:hidden;overflow-wrap:break-word;&quot;&gt;&lt;p style=&quot;line-height:1.38;margin-top:0pt;margin-bottom:0pt;&quot; dir=&quot;ltr&quot;&gt;&lt;span style=&quot;font-size: 11pt; font-family: Arial; background-color: transparent; font-variant-numeric: normal; font-variant-east-asian: normal; vertical-align: baseline;&quot;&gt;1&lt;/span&gt;&lt;/p&gt;&lt;/td&gt;&lt;td style=&quot;vertical-align:top;background-color:#63be7b;padding:5pt 5pt 5pt 5pt;overflow:hidden;overflow-wrap:break-word;&quot;&gt;&lt;p style=&quot;line-height:1.38;margin-top:0pt;margin-bottom:0pt;&quot; dir=&quot;ltr&quot;&gt;&lt;span style=&quot;font-size: 11pt; font-family: Arial; background-color: transparent; font-variant-numeric: normal; font-variant-east-asian: normal; vertical-align: baseline;&quot;&gt;0&lt;/span&gt;&lt;/p&gt;&lt;/td&gt;&lt;td style=&quot;vertical-align:top;background-color:#ffeb84;padding:5pt 5pt 5pt 5pt;overflow:hidden;overflow-wrap:break-word;&quot;&gt;&lt;p style=&quot;line-height:1.38;margin-top:0pt;margin-bottom:0pt;&quot; dir=&quot;ltr&quot;&gt;&lt;span style=&quot;font-size: 11pt; font-family: Arial; background-color: transparent; font-variant-numeric: normal; font-variant-east-asian: normal; vertical-align: baseline;&quot;&gt;1&lt;/span&gt;&lt;/p&gt;&lt;/td&gt;&lt;td style=&quot;vertical-align:top;background-color:#ffeb84;padding:5pt 5pt 5pt 5pt;overflow:hidden;overflow-wrap:break-word;&quot;&gt;&lt;p style=&quot;line-height:1.38;margin-top:0pt;margin-bottom:0pt;&quot; dir=&quot;ltr&quot;&gt;&lt;span style=&quot;font-size: 11pt; font-family: Arial; background-color: transparent; font-variant-numeric: normal; font-variant-east-asian: normal; vertical-align: baseline;&quot;&gt;1&lt;/span&gt;&lt;/p&gt;&lt;/td&gt;&lt;td style=&quot;vertical-align:top;background-color:#ffeb84;padding:5pt 5pt 5pt 5pt;overflow:hidden;overflow-wrap:break-word;&quot;&gt;&lt;p style=&quot;line-height:1.38;margin-top:0pt;margin-bottom:0pt;&quot; dir=&quot;ltr&quot;&gt;&lt;span style=&quot;font-size: 11pt; font-family: Arial; background-color: transparent; font-variant-numeric: normal; font-variant-east-asian: normal; vertical-align: baseline;&quot;&gt;1&lt;/span&gt;&lt;/p&gt;&lt;/td&gt;&lt;td style=&quot;vertical-align:top;background-color:#ffeb84;padding:5pt 5pt 5pt 5pt;overflow:hidden;overflow-wrap:break-word;&quot;&gt;&lt;p style=&quot;line-height:1.38;margin-top:0pt;margin-bottom:0pt;&quot; dir=&quot;ltr&quot;&gt;&lt;span style=&quot;font-size: 11pt; font-family: Arial; background-color: transparent; font-variant-numeric: normal; font-variant-east-asian: normal; vertical-align: baseline;&quot;&gt;1&lt;/span&gt;&lt;/p&gt;&lt;/td&gt;&lt;td style=&quot;vertical-align:top;background-color:#ffeb84;padding:5pt 5pt 5pt 5pt;overflow:hidden;overflow-wrap:break-word;&quot;&gt;&lt;p style=&quot;line-height:1.38;margin-top:0pt;margin-bottom:0pt;&quot; dir=&quot;ltr&quot;&gt;&lt;span style=&quot;font-size: 11pt; font-family: Arial; background-color: transparent; font-variant-numeric: normal; font-variant-east-asian: normal; vertical-align: baseline;&quot;&gt;1&lt;/span&gt;&lt;/p&gt;&lt;/td&gt;&lt;td style=&quot;vertical-align:top;background-color:#ffeb84;padding:5pt 5pt 5pt 5pt;overflow:hidden;overflow-wrap:break-word;&quot;&gt;&lt;p style=&quot;line-height:1.38;margin-top:0pt;margin-bottom:0pt;&quot; dir=&quot;ltr&quot;&gt;&lt;span style=&quot;font-size: 11pt; font-family: Arial; background-color: transparent; font-variant-numeric: normal; font-variant-east-asian: normal; vertical-align: baseline;&quot;&gt;1&lt;/span&gt;&lt;/p&gt;&lt;/td&gt;&lt;td style=&quot;vertical-align:top;background-color:#ffeb84;padding:5pt 5pt 5pt 5pt;overflow:hidden;overflow-wrap:break-word;&quot;&gt;&lt;p style=&quot;line-height:1.38;margin-top:0pt;margin-bottom:0pt;&quot; dir=&quot;ltr&quot;&gt;&lt;span style=&quot;font-size: 11pt; font-family: Arial; background-color: transparent; font-variant-numeric: normal; font-variant-east-asian: normal; vertical-align: baseline;&quot;&gt;1&lt;/span&gt;&lt;/p&gt;&lt;/td&gt;&lt;td style=&quot;vertical-align:top;background-color:#63be7b;padding:5pt 5pt 5pt 5pt;overflow:hidden;overflow-wrap:break-word;&quot;&gt;&lt;p style=&quot;line-height:1.38;margin-top:0pt;margin-bottom:0pt;&quot; dir=&quot;ltr&quot;&gt;&lt;span style=&quot;font-size: 11pt; font-family: Arial; background-color: transparent; font-variant-numeric: normal; font-variant-east-asian: normal; vertical-align: baseline;&quot;&gt;0&lt;/span&gt;&lt;/p&gt;&lt;/td&gt;&lt;td style=&quot;vertical-align:top;background-color:#ffeb84;padding:5pt 5pt 5pt 5pt;overflow:hidden;overflow-wrap:break-word;&quot;&gt;&lt;p style=&quot;line-height:1.38;margin-top:0pt;margin-bottom:0pt;&quot; dir=&quot;ltr&quot;&gt;&lt;span style=&quot;font-size: 11pt; font-family: Arial; background-color: transparent; font-variant-numeric: normal; font-variant-east-asian: normal; vertical-align: baseline;&quot;&gt;1&lt;/span&gt;&lt;/p&gt;&lt;/td&gt;&lt;/tr&gt;&lt;tr style=&quot;height:24.25pt&quot;&gt;&lt;td style=&quot;vertical-align:top;background-color:#ffeb84;padding:5pt 5pt 5pt 5pt;overflow:hidden;overflow-wrap:break-word;&quot;&gt;&lt;p style=&quot;line-height:1.38;margin-top:0pt;margin-bottom:0pt;&quot; dir=&quot;ltr&quot;&gt;&lt;span style=&quot;font-size: 11pt; font-family: Arial; background-color: transparent; font-variant-numeric: normal; font-variant-east-asian: normal; vertical-align: baseline;&quot;&gt;1&lt;/span&gt;&lt;/p&gt;&lt;/td&gt;&lt;td style=&quot;vertical-align:top;background-color:#63be7b;padding:5pt 5pt 5pt 5pt;overflow:hidden;overflow-wrap:break-word;&quot;&gt;&lt;p style=&quot;line-height:1.38;margin-top:0pt;margin-bottom:0pt;&quot; dir=&quot;ltr&quot;&gt;&lt;span style=&quot;font-size: 11pt; font-family: Arial; background-color: transparent; font-variant-numeric: normal; font-variant-east-asian: normal; vertical-align: baseline;&quot;&gt;0&lt;/span&gt;&lt;/p&gt;&lt;/td&gt;&lt;td style=&quot;vertical-align:top;background-color:#63be7b;padding:5pt 5pt 5pt 5pt;overflow:hidden;overflow-wrap:break-word;&quot;&gt;&lt;p style=&quot;line-height:1.38;margin-top:0pt;margin-bottom:0pt;&quot; dir=&quot;ltr&quot;&gt;&lt;span style=&quot;font-size: 11pt; font-family: Arial; background-color: transparent; font-variant-numeric: normal; font-variant-east-asian: normal; vertical-align: baseline;&quot;&gt;0&lt;/span&gt;&lt;/p&gt;&lt;/td&gt;&lt;td style=&quot;vertical-align:top;background-color:#63be7b;padding:5pt 5pt 5pt 5pt;overflow:hidden;overflow-wrap:break-word;&quot;&gt;&lt;p style=&quot;line-height:1.38;margin-top:0pt;margin-bottom:0pt;&quot; dir=&quot;ltr&quot;&gt;&lt;span style=&quot;font-size: 11pt; font-family: Arial; background-color: transparent; font-variant-numeric: normal; font-variant-east-asian: normal; vertical-align: baseline;&quot;&gt;0&lt;/span&gt;&lt;/p&gt;&lt;/td&gt;&lt;td style=&quot;vertical-align:top;background-color:#ffeb84;padding:5pt 5pt 5pt 5pt;overflow:hidden;overflow-wrap:break-word;&quot;&gt;&lt;p style=&quot;line-height:1.38;margin-top:0pt;margin-bottom:0pt;&quot; dir=&quot;ltr&quot;&gt;&lt;span style=&quot;font-size: 11pt; font-family: Arial; background-color: transparent; font-variant-numeric: normal; font-variant-east-asian: normal; vertical-align: baseline;&quot;&gt;1&lt;/span&gt;&lt;/p&gt;&lt;/td&gt;&lt;td style=&quot;vertical-align:top;background-color:#63be7b;padding:5pt 5pt 5pt 5pt;overflow:hidden;overflow-wrap:break-word;&quot;&gt;&lt;p style=&quot;line-height:1.38;margin-top:0pt;margin-bottom:0pt;&quot; dir=&quot;ltr&quot;&gt;&lt;span style=&quot;font-size: 11pt; font-family: Arial; background-color: transparent; font-variant-numeric: normal; font-variant-east-asian: normal; vertical-align: baseline;&quot;&gt;0&lt;/span&gt;&lt;/p&gt;&lt;/td&gt;&lt;td style=&quot;vertical-align:top;background-color:#ffeb84;padding:5pt 5pt 5pt 5pt;overflow:hidden;overflow-wrap:break-word;&quot;&gt;&lt;p style=&quot;line-height:1.38;margin-top:0pt;margin-bottom:0pt;&quot; dir=&quot;ltr&quot;&gt;&lt;span style=&quot;font-size: 11pt; font-family: Arial; background-color: transparent; font-variant-numeric: normal; font-variant-east-asian: normal; vertical-align: baseline;&quot;&gt;1&lt;/span&gt;&lt;/p&gt;&lt;/td&gt;&lt;td style=&quot;vertical-align:top;background-color:#63be7b;padding:5pt 5pt 5pt 5pt;overflow:hidden;overflow-wrap:break-word;&quot;&gt;&lt;p style=&quot;line-height:1.38;margin-top:0pt;margin-bottom:0pt;&quot; dir=&quot;ltr&quot;&gt;&lt;span style=&quot;font-size: 11pt; font-family: Arial; background-color: transparent; font-variant-numeric: normal; font-variant-east-asian: normal; vertical-align: baseline;&quot;&gt;0&lt;/span&gt;&lt;/p&gt;&lt;/td&gt;&lt;td style=&quot;vertical-align:top;background-color:#ffeb84;padding:5pt 5pt 5pt 5pt;overflow:hidden;overflow-wrap:break-word;&quot;&gt;&lt;p style=&quot;line-height:1.38;margin-top:0pt;margin-bottom:0pt;&quot; dir=&quot;ltr&quot;&gt;&lt;span style=&quot;font-size: 11pt; font-family: Arial; background-color: transparent; font-variant-numeric: normal; font-variant-east-asian: normal; vertical-align: baseline;&quot;&gt;1&lt;/span&gt;&lt;/p&gt;&lt;/td&gt;&lt;td style=&quot;vertical-align:top;background-color:#63be7b;padding:5pt 5pt 5pt 5pt;overflow:hidden;overflow-wrap:break-word;&quot;&gt;&lt;p style=&quot;line-height:1.38;margin-top:0pt;margin-bottom:0pt;&quot; dir=&quot;ltr&quot;&gt;&lt;span style=&quot;font-size: 11pt; font-family: Arial; background-color: transparent; font-variant-numeric: normal; font-variant-east-asian: normal; vertical-align: baseline;&quot;&gt;0&lt;/span&gt;&lt;/p&gt;&lt;/td&gt;&lt;td style=&quot;vertical-align:top;background-color:#63be7b;padding:5pt 5pt 5pt 5pt;overflow:hidden;overflow-wrap:break-word;&quot;&gt;&lt;p style=&quot;line-height:1.38;margin-top:0pt;margin-bottom:0pt;&quot; dir=&quot;ltr&quot;&gt;&lt;span style=&quot;font-size: 11pt; font-family: Arial; background-color: transparent; font-variant-numeric: normal; font-variant-east-asian: normal; vertical-align: baseline;&quot;&gt;0&lt;/span&gt;&lt;/p&gt;&lt;/td&gt;&lt;td style=&quot;vertical-align:top;background-color:#63be7b;padding:5pt 5pt 5pt 5pt;overflow:hidden;overflow-wrap:break-word;&quot;&gt;&lt;p style=&quot;line-height:1.38;margin-top:0pt;margin-bottom:0pt;&quot; dir=&quot;ltr&quot;&gt;&lt;span style=&quot;font-size: 11pt; font-family: Arial; background-color: transparent; font-variant-numeric: normal; font-variant-east-asian: normal; vertical-align: baseline;&quot;&gt;0&lt;/span&gt;&lt;/p&gt;&lt;/td&gt;&lt;td style=&quot;vertical-align:top;background-color:#63be7b;padding:5pt 5pt 5pt 5pt;overflow:hidden;overflow-wrap:break-word;&quot;&gt;&lt;p style=&quot;line-height:1.38;margin-top:0pt;margin-bottom:0pt;&quot; dir=&quot;ltr&quot;&gt;&lt;span style=&quot;font-size: 11pt; font-family: Arial; background-color: transparent; font-variant-numeric: normal; font-variant-east-asian: normal; vertical-align: baseline;&quot;&gt;0&lt;/span&gt;&lt;/p&gt;&lt;/td&gt;&lt;td style=&quot;vertical-align:top;background-color:#63be7b;padding:5pt 5pt 5pt 5pt;overflow:hidden;overflow-wrap:break-word;&quot;&gt;&lt;p style=&quot;line-height:1.38;margin-top:0pt;margin-bottom:0pt;&quot; dir=&quot;ltr&quot;&gt;&lt;span style=&quot;font-size: 11pt; font-family: Arial; background-color: transparent; font-variant-numeric: normal; font-variant-east-asian: normal; vertical-align: baseline;&quot;&gt;0&lt;/span&gt;&lt;/p&gt;&lt;/td&gt;&lt;td style=&quot;vertical-align:top;background-color:#ffeb84;padding:5pt 5pt 5pt 5pt;overflow:hidden;overflow-wrap:break-word;&quot;&gt;&lt;p style=&quot;line-height:1.38;margin-top:0pt;margin-bottom:0pt;&quot; dir=&quot;ltr&quot;&gt;&lt;span style=&quot;font-size: 11pt; font-family: Arial; background-color: transparent; font-variant-numeric: normal; font-variant-east-asian: normal; vertical-align: baseline;&quot;&gt;1&lt;/span&gt;&lt;/p&gt;&lt;/td&gt;&lt;/tr&gt;&lt;tr style=&quot;height:24.25pt&quot;&gt;&lt;td style=&quot;vertical-align:top;background-color:#ffeb84;padding:5pt 5pt 5pt 5pt;overflow:hidden;overflow-wrap:break-word;&quot;&gt;&lt;p style=&quot;line-height:1.38;margin-top:0pt;margin-bottom:0pt;&quot; dir=&quot;ltr&quot;&gt;&lt;span style=&quot;font-size: 11pt; font-family: Arial; background-color: transparent; font-variant-numeric: normal; font-variant-east-asian: normal; vertical-align: baseline;&quot;&gt;1&lt;/span&gt;&lt;/p&gt;&lt;/td&gt;&lt;td style=&quot;vertical-align:top;background-color:#63be7b;padding:5pt 5pt 5pt 5pt;overflow:hidden;overflow-wrap:break-word;&quot;&gt;&lt;p style=&quot;line-height:1.38;margin-top:0pt;margin-bottom:0pt;&quot; dir=&quot;ltr&quot;&gt;&lt;span style=&quot;font-size: 11pt; font-family: Arial; background-color: transparent; font-variant-numeric: normal; font-variant-east-asian: normal; vertical-align: baseline;&quot;&gt;0&lt;/span&gt;&lt;/p&gt;&lt;/td&gt;&lt;td style=&quot;vertical-align:top;background-color:#ffeb84;padding:5pt 5pt 5pt 5pt;overflow:hidden;overflow-wrap:break-word;&quot;&gt;&lt;p style=&quot;line-height:1.38;margin-top:0pt;margin-bottom:0pt;&quot; dir=&quot;ltr&quot;&gt;&lt;span style=&quot;font-size: 11pt; font-family: Arial; background-color: transparent; font-variant-numeric: normal; font-variant-east-asian: normal; vertical-align: baseline;&quot;&gt;1&lt;/span&gt;&lt;/p&gt;&lt;/td&gt;&lt;td style=&quot;vertical-align:top;background-color:#63be7b;padding:5pt 5pt 5pt 5pt;overflow:hidden;overflow-wrap:break-word;&quot;&gt;&lt;p style=&quot;line-height:1.38;margin-top:0pt;margin-bottom:0pt;&quot; dir=&quot;ltr&quot;&gt;&lt;span style=&quot;font-size: 11pt; font-family: Arial; background-color: transparent; font-variant-numeric: normal; font-variant-east-asian: normal; vertical-align: baseline;&quot;&gt;0&lt;/span&gt;&lt;/p&gt;&lt;/td&gt;&lt;td style=&quot;vertical-align:top;background-color:#ffeb84;padding:5pt 5pt 5pt 5pt;overflow:hidden;overflow-wrap:break-word;&quot;&gt;&lt;p style=&quot;line-height:1.38;margin-top:0pt;margin-bottom:0pt;&quot; dir=&quot;ltr&quot;&gt;&lt;span style=&quot;font-size: 11pt; font-family: Arial; background-color: transparent; font-variant-numeric: normal; font-variant-east-asian: normal; vertical-align: baseline;&quot;&gt;1&lt;/span&gt;&lt;/p&gt;&lt;/td&gt;&lt;td style=&quot;vertical-align:top;background-color:#63be7b;padding:5pt 5pt 5pt 5pt;overflow:hidden;overflow-wrap:break-word;&quot;&gt;&lt;p style=&quot;line-height:1.38;margin-top:0pt;margin-bottom:0pt;&quot; dir=&quot;ltr&quot;&gt;&lt;span style=&quot;font-size: 11pt; font-family: Arial; background-color: transparent; font-variant-numeric: normal; font-variant-east-asian: normal; vertical-align: baseline;&quot;&gt;0&lt;/span&gt;&lt;/p&gt;&lt;/td&gt;&lt;td style=&quot;vertical-align:top;background-color:#ffeb84;padding:5pt 5pt 5pt 5pt;overflow:hidden;overflow-wrap:break-word;&quot;&gt;&lt;p style=&quot;line-height:1.38;margin-top:0pt;margin-bottom:0pt;&quot; dir=&quot;ltr&quot;&gt;&lt;span style=&quot;font-size: 11pt; font-family: Arial; background-color: transparent; font-variant-numeric: normal; font-variant-east-asian: normal; vertical-align: baseline;&quot;&gt;1&lt;/span&gt;&lt;/p&gt;&lt;/td&gt;&lt;td style=&quot;vertical-align:top;background-color:#63be7b;padding:5pt 5pt 5pt 5pt;overflow:hidden;overflow-wrap:break-word;&quot;&gt;&lt;p style=&quot;line-height:1.38;margin-top:0pt;margin-bottom:0pt;&quot; dir=&quot;ltr&quot;&gt;&lt;span style=&quot;font-size: 11pt; font-family: Arial; background-color: transparent; font-variant-numeric: normal; font-variant-east-asian: normal; vertical-align: baseline;&quot;&gt;0&lt;/span&gt;&lt;/p&gt;&lt;/td&gt;&lt;td style=&quot;vertical-align:top;background-color:#ffeb84;padding:5pt 5pt 5pt 5pt;overflow:hidden;overflow-wrap:break-word;&quot;&gt;&lt;p style=&quot;line-height:1.38;margin-top:0pt;margin-bottom:0pt;&quot; dir=&quot;ltr&quot;&gt;&lt;span style=&quot;font-size: 11pt; font-family: Arial; background-color: transparent; font-variant-numeric: normal; font-variant-east-asian: normal; vertical-align: baseline;&quot;&gt;1&lt;/span&gt;&lt;/p&gt;&lt;/td&gt;&lt;td style=&quot;vertical-align:top;background-color:#63be7b;padding:5pt 5pt 5pt 5pt;overflow:hidden;overflow-wrap:break-word;&quot;&gt;&lt;p style=&quot;line-height:1.38;margin-top:0pt;margin-bottom:0pt;&quot; dir=&quot;ltr&quot;&gt;&lt;span style=&quot;font-size: 11pt; font-family: Arial; background-color: transparent; font-variant-numeric: normal; font-variant-east-asian: normal; vertical-align: baseline;&quot;&gt;0&lt;/span&gt;&lt;/p&gt;&lt;/td&gt;&lt;td style=&quot;vertical-align:top;background-color:#ffeb84;padding:5pt 5pt 5pt 5pt;overflow:hidden;overflow-wrap:break-word;&quot;&gt;&lt;p style=&quot;line-height:1.38;margin-top:0pt;margin-bottom:0pt;&quot; dir=&quot;ltr&quot;&gt;&lt;span style=&quot;font-size: 11pt; font-family: Arial; background-color: transparent; font-variant-numeric: normal; font-variant-east-asian: normal; vertical-align: baseline;&quot;&gt;1&lt;/span&gt;&lt;/p&gt;&lt;/td&gt;&lt;td style=&quot;vertical-align:top;background-color:#63be7b;padding:5pt 5pt 5pt 5pt;overflow:hidden;overflow-wrap:break-word;&quot;&gt;&lt;p style=&quot;line-height:1.38;margin-top:0pt;margin-bottom:0pt;&quot; dir=&quot;ltr&quot;&gt;&lt;span style=&quot;font-size: 11pt; font-family: Arial; background-color: transparent; font-variant-numeric: normal; font-variant-east-asian: normal; vertical-align: baseline;&quot;&gt;0&lt;/span&gt;&lt;/p&gt;&lt;/td&gt;&lt;td style=&quot;vertical-align:top;background-color:#ffeb84;padding:5pt 5pt 5pt 5pt;overflow:hidden;overflow-wrap:break-word;&quot;&gt;&lt;p style=&quot;line-height:1.38;margin-top:0pt;margin-bottom:0pt;&quot; dir=&quot;ltr&quot;&gt;&lt;span style=&quot;font-size: 11pt; font-family: Arial; background-color: transparent; font-variant-numeric: normal; font-variant-east-asian: normal; vertical-align: baseline;&quot;&gt;1&lt;/span&gt;&lt;/p&gt;&lt;/td&gt;&lt;td style=&quot;vertical-align:top;background-color:#ffeb84;padding:5pt 5pt 5pt 5pt;overflow:hidden;overflow-wrap:break-word;&quot;&gt;&lt;p style=&quot;line-height:1.38;margin-top:0pt;margin-bottom:0pt;&quot; dir=&quot;ltr&quot;&gt;&lt;span style=&quot;font-size: 11pt; font-family: Arial; background-color: transparent; font-variant-numeric: normal; font-variant-east-asian: normal; vertical-align: baseline;&quot;&gt;1&lt;/span&gt;&lt;/p&gt;&lt;/td&gt;&lt;td style=&quot;vertical-align:top;background-color:#ffeb84;padding:5pt 5pt 5pt 5pt;overflow:hidden;overflow-wrap:break-word;&quot;&gt;&lt;p style=&quot;line-height:1.38;margin-top:0pt;margin-bottom:0pt;&quot; dir=&quot;ltr&quot;&gt;&lt;span style=&quot;font-size: 11pt; font-family: Arial; background-color: transparent; font-variant-numeric: normal; font-variant-east-asian: normal; vertical-align: baseline;&quot;&gt;1&lt;/span&gt;&lt;/p&gt;&lt;/td&gt;&lt;/tr&gt;&lt;tr style=&quot;height:24.25pt&quot;&gt;&lt;td style=&quot;vertical-align:top;background-color:#ffeb84;padding:5pt 5pt 5pt 5pt;overflow:hidden;overflow-wrap:break-word;&quot;&gt;&lt;p style=&quot;line-height:1.38;margin-top:0pt;margin-bottom:0pt;&quot; dir=&quot;ltr&quot;&gt;&lt;span style=&quot;font-size: 11pt; font-family: Arial; background-color: transparent; font-variant-numeric: normal; font-variant-east-asian: normal; vertical-align: baseline;&quot;&gt;1&lt;/span&gt;&lt;/p&gt;&lt;/td&gt;&lt;td style=&quot;vertical-align:top;background-color:#63be7b;padding:5pt 5pt 5pt 5pt;overflow:hidden;overflow-wrap:break-word;&quot;&gt;&lt;p style=&quot;line-height:1.38;margin-top:0pt;margin-bottom:0pt;&quot; dir=&quot;ltr&quot;&gt;&lt;span style=&quot;font-size: 11pt; font-family: Arial; background-color: transparent; font-variant-numeric: normal; font-variant-east-asian: normal; vertical-align: baseline;&quot;&gt;0&lt;/span&gt;&lt;/p&gt;&lt;/td&gt;&lt;td style=&quot;vertical-align:top;background-color:#ffeb84;padding:5pt 5pt 5pt 5pt;overflow:hidden;overflow-wrap:break-word;&quot;&gt;&lt;p style=&quot;line-height:1.38;margin-top:0pt;margin-bottom:0pt;&quot; dir=&quot;ltr&quot;&gt;&lt;span style=&quot;font-size: 11pt; font-family: Arial; background-color: transparent; font-variant-numeric: normal; font-variant-east-asian: normal; vertical-align: baseline;&quot;&gt;1&lt;/span&gt;&lt;/p&gt;&lt;/td&gt;&lt;td style=&quot;vertical-align:top;background-color:#63be7b;padding:5pt 5pt 5pt 5pt;overflow:hidden;overflow-wrap:break-word;&quot;&gt;&lt;p style=&quot;line-height:1.38;margin-top:0pt;margin-bottom:0pt;&quot; dir=&quot;ltr&quot;&gt;&lt;span style=&quot;font-size: 11pt; font-family: Arial; background-color: transparent; font-variant-numeric: normal; font-variant-east-asian: normal; vertical-align: baseline;&quot;&gt;0&lt;/span&gt;&lt;/p&gt;&lt;/td&gt;&lt;td style=&quot;vertical-align:top;background-color:#ffeb84;padding:5pt 5pt 5pt 5pt;overflow:hidden;overflow-wrap:break-word;&quot;&gt;&lt;p style=&quot;line-height:1.38;margin-top:0pt;margin-bottom:0pt;&quot; dir=&quot;ltr&quot;&gt;&lt;span style=&quot;font-size: 11pt; font-family: Arial; background-color: transparent; font-variant-numeric: normal; font-variant-east-asian: normal; vertical-align: baseline;&quot;&gt;1&lt;/span&gt;&lt;/p&gt;&lt;/td&gt;&lt;td style=&quot;vertical-align:top;background-color:#63be7b;padding:5pt 5pt 5pt 5pt;overflow:hidden;overflow-wrap:break-word;&quot;&gt;&lt;p style=&quot;line-height:1.38;margin-top:0pt;margin-bottom:0pt;&quot; dir=&quot;ltr&quot;&gt;&lt;span style=&quot;font-size: 11pt; font-family: Arial; background-color: transparent; font-variant-numeric: normal; font-variant-east-asian: normal; vertical-align: baseline;&quot;&gt;0&lt;/span&gt;&lt;/p&gt;&lt;/td&gt;&lt;td style=&quot;vertical-align:top;background-color:#63be7b;padding:5pt 5pt 5pt 5pt;overflow:hidden;overflow-wrap:break-word;&quot;&gt;&lt;p style=&quot;line-height:1.38;margin-top:0pt;margin-bottom:0pt;&quot; dir=&quot;ltr&quot;&gt;&lt;span style=&quot;font-size: 11pt; font-family: Arial; background-color: transparent; font-variant-numeric: normal; font-variant-east-asian: normal; vertical-align: baseline;&quot;&gt;0&lt;/span&gt;&lt;/p&gt;&lt;/td&gt;&lt;td style=&quot;vertical-align:top;background-color:#63be7b;padding:5pt 5pt 5pt 5pt;overflow:hidden;overflow-wrap:break-word;&quot;&gt;&lt;p style=&quot;line-height:1.38;margin-top:0pt;margin-bottom:0pt;&quot; dir=&quot;ltr&quot;&gt;&lt;span style=&quot;font-size: 11pt; font-family: Arial; background-color: transparent; font-variant-numeric: normal; font-variant-east-asian: normal; vertical-align: baseline;&quot;&gt;0&lt;/span&gt;&lt;/p&gt;&lt;/td&gt;&lt;td style=&quot;vertical-align:top;background-color:#63be7b;padding:5pt 5pt 5pt 5pt;overflow:hidden;overflow-wrap:break-word;&quot;&gt;&lt;p style=&quot;line-height:1.38;margin-top:0pt;margin-bottom:0pt;&quot; dir=&quot;ltr&quot;&gt;&lt;span style=&quot;font-size: 11pt; font-family: Arial; background-color: transparent; font-variant-numeric: normal; font-variant-east-asian: normal; vertical-align: baseline;&quot;&gt;0&lt;/span&gt;&lt;/p&gt;&lt;/td&gt;&lt;td style=&quot;vertical-align:top;background-color:#63be7b;padding:5pt 5pt 5pt 5pt;overflow:hidden;overflow-wrap:break-word;&quot;&gt;&lt;p style=&quot;line-height:1.38;margin-top:0pt;margin-bottom:0pt;&quot; dir=&quot;ltr&quot;&gt;&lt;span style=&quot;font-size: 11pt; font-family: Arial; background-color: transparent; font-variant-numeric: normal; font-variant-east-asian: normal; vertical-align: baseline;&quot;&gt;0&lt;/span&gt;&lt;/p&gt;&lt;/td&gt;&lt;td style=&quot;vertical-align:top;background-color:#ffeb84;padding:5pt 5pt 5pt 5pt;overflow:hidden;overflow-wrap:break-word;&quot;&gt;&lt;p style=&quot;line-height:1.38;margin-top:0pt;margin-bottom:0pt;&quot; dir=&quot;ltr&quot;&gt;&lt;span style=&quot;font-size: 11pt; font-family: Arial; background-color: transparent; font-variant-numeric: normal; font-variant-east-asian: normal; vertical-align: baseline;&quot;&gt;1&lt;/span&gt;&lt;/p&gt;&lt;/td&gt;&lt;td style=&quot;vertical-align:top;background-color:#63be7b;padding:5pt 5pt 5pt 5pt;overflow:hidden;overflow-wrap:break-word;&quot;&gt;&lt;p style=&quot;line-height:1.38;margin-top:0pt;margin-bottom:0pt;&quot; dir=&quot;ltr&quot;&gt;&lt;span style=&quot;font-size: 11pt; font-family: Arial; background-color: transparent; font-variant-numeric: normal; font-variant-east-asian: normal; vertical-align: baseline;&quot;&gt;0&lt;/span&gt;&lt;/p&gt;&lt;/td&gt;&lt;td style=&quot;vertical-align:top;background-color:#63be7b;padding:5pt 5pt 5pt 5pt;overflow:hidden;overflow-wrap:break-word;&quot;&gt;&lt;p style=&quot;line-height:1.38;margin-top:0pt;margin-bottom:0pt;&quot; dir=&quot;ltr&quot;&gt;&lt;span style=&quot;font-size: 11pt; font-family: Arial; background-color: transparent; font-variant-numeric: normal; font-variant-east-asian: normal; vertical-align: baseline;&quot;&gt;0&lt;/span&gt;&lt;/p&gt;&lt;/td&gt;&lt;td style=&quot;vertical-align:top;background-color:#f8696b;padding:5pt 5pt 5pt 5pt;overflow:hidden;overflow-wrap:break-word;&quot;&gt;&lt;p style=&quot;line-height:1.38;margin-top:0pt;margin-bottom:0pt;&quot; dir=&quot;ltr&quot;&gt;&lt;span style=&quot;font-size: 11pt; font-family: Arial; background-color: transparent; font-variant-numeric: normal; font-variant-east-asian: normal; vertical-align: baseline;&quot;&gt;3&lt;/span&gt;&lt;/p&gt;&lt;/td&gt;&lt;td style=&quot;vertical-align:top;background-color:#ffeb84;padding:5pt 5pt 5pt 5pt;overflow:hidden;overflow-wrap:break-word;&quot;&gt;&lt;p style=&quot;line-height:1.38;margin-top:0pt;margin-bottom:0pt;&quot; dir=&quot;ltr&quot;&gt;&lt;span style=&quot;font-size: 11pt; font-family: Arial; background-color: transparent; font-variant-numeric: normal; font-variant-east-asian: normal; vertical-align: baseline;&quot;&gt;1&lt;/span&gt;&lt;/p&gt;&lt;/td&gt;&lt;/tr&gt;&lt;tr style=&quot;height:0pt&quot;&gt;&lt;td style=&quot;vertical-align:top;background-color:#ffeb84;padding:5pt 5pt 5pt 5pt;overflow:hidden;overflow-wrap:break-word;&quot;&gt;&lt;p style=&quot;line-height:1.38;margin-top:0pt;margin-bottom:0pt;&quot; dir=&quot;ltr&quot;&gt;&lt;span style=&quot;font-size: 11pt; font-family: Arial; background-color: transparent; font-variant-numeric: normal; font-variant-east-asian: normal; vertical-align: baseline;&quot;&gt;1&lt;/span&gt;&lt;/p&gt;&lt;/td&gt;&lt;td style=&quot;vertical-align:top;background-color:#ffeb84;padding:5pt 5pt 5pt 5pt;overflow:hidden;overflow-wrap:break-word;&quot;&gt;&lt;p style=&quot;line-height:1.38;margin-top:0pt;margin-bottom:0pt;&quot; dir=&quot;ltr&quot;&gt;&lt;span style=&quot;font-size: 11pt; font-family: Arial; background-color: transparent; font-variant-numeric: normal; font-variant-east-asian: normal; vertical-align: baseline;&quot;&gt;1&lt;/span&gt;&lt;/p&gt;&lt;/td&gt;&lt;td style=&quot;vertical-align:top;background-color:#ffeb84;padding:5pt 5pt 5pt 5pt;overflow:hidden;overflow-wrap:break-word;&quot;&gt;&lt;p style=&quot;line-height:1.38;margin-top:0pt;margin-bottom:0pt;&quot; dir=&quot;ltr&quot;&gt;&lt;span style=&quot;font-size: 11pt; font-family: Arial; background-color: transparent; font-variant-numeric: normal; font-variant-east-asian: normal; vertical-align: baseline;&quot;&gt;1&lt;/span&gt;&lt;/p&gt;&lt;/td&gt;&lt;td style=&quot;vertical-align:top;background-color:#ffeb84;padding:5pt 5pt 5pt 5pt;overflow:hidden;overflow-wrap:break-word;&quot;&gt;&lt;p style=&quot;line-height:1.38;margin-top:0pt;margin-bottom:0pt;&quot; dir=&quot;ltr&quot;&gt;&lt;span style=&quot;font-size: 11pt; font-family: Arial; background-color: transparent; font-variant-numeric: normal; font-variant-east-asian: normal; vertical-align: baseline;&quot;&gt;1&lt;/span&gt;&lt;/p&gt;&lt;/td&gt;&lt;td style=&quot;vertical-align:top;background-color:#ffeb84;padding:5pt 5pt 5pt 5pt;overflow:hidden;overflow-wrap:break-word;&quot;&gt;&lt;p style=&quot;line-height:1.38;margin-top:0pt;margin-bottom:0pt;&quot; dir=&quot;ltr&quot;&gt;&lt;span style=&quot;font-size: 11pt; font-family: Arial; background-color: transparent; font-variant-numeric: normal; font-variant-east-asian: normal; vertical-align: baseline;&quot;&gt;1&lt;/span&gt;&lt;/p&gt;&lt;/td&gt;&lt;td style=&quot;vertical-align:top;background-color:#ffeb84;padding:5pt 5pt 5pt 5pt;overflow:hidden;overflow-wrap:break-word;&quot;&gt;&lt;p style=&quot;line-height:1.38;margin-top:0pt;margin-bottom:0pt;&quot; dir=&quot;ltr&quot;&gt;&lt;span style=&quot;font-size: 11pt; font-family: Arial; background-color: transparent; font-variant-numeric: normal; font-variant-east-asian: normal; vertical-align: baseline;&quot;&gt;1&lt;/span&gt;&lt;/p&gt;&lt;/td&gt;&lt;td style=&quot;vertical-align:top;background-color:#ffeb84;padding:5pt 5pt 5pt 5pt;overflow:hidden;overflow-wrap:break-word;&quot;&gt;&lt;p style=&quot;line-height:1.38;margin-top:0pt;margin-bottom:0pt;&quot; dir=&quot;ltr&quot;&gt;&lt;span style=&quot;font-size: 11pt; font-family: Arial; background-color: transparent; font-variant-numeric: normal; font-variant-east-asian: normal; vertical-align: baseline;&quot;&gt;1&lt;/span&gt;&lt;/p&gt;&lt;/td&gt;&lt;td style=&quot;vertical-align:top;background-color:#ffeb84;padding:5pt 5pt 5pt 5pt;overflow:hidden;overflow-wrap:break-word;&quot;&gt;&lt;p style=&quot;line-height:1.38;margin-top:0pt;margin-bottom:0pt;&quot; dir=&quot;ltr&quot;&gt;&lt;span style=&quot;font-size: 11pt; font-family: Arial; background-color: transparent; font-variant-numeric: normal; font-variant-east-asian: normal; vertical-align: baseline;&quot;&gt;1&lt;/span&gt;&lt;/p&gt;&lt;/td&gt;&lt;td style=&quot;vertical-align:top;background-color:#ffeb84;padding:5pt 5pt 5pt 5pt;overflow:hidden;overflow-wrap:break-word;&quot;&gt;&lt;p style=&quot;line-height:1.38;margin-top:0pt;margin-bottom:0pt;&quot; dir=&quot;ltr&quot;&gt;&lt;span style=&quot;font-size: 11pt; font-family: Arial; background-color: transparent; font-variant-numeric: normal; font-variant-east-asian: normal; vertical-align: baseline;&quot;&gt;1&lt;/span&gt;&lt;/p&gt;&lt;/td&gt;&lt;td style=&quot;vertical-align:top;background-color:#ffeb84;padding:5pt 5pt 5pt 5pt;overflow:hidden;overflow-wrap:break-word;&quot;&gt;&lt;p style=&quot;line-height:1.38;margin-top:0pt;margin-bottom:0pt;&quot; dir=&quot;ltr&quot;&gt;&lt;span style=&quot;font-size: 11pt; font-family: Arial; background-color: transparent; font-variant-numeric: normal; font-variant-east-asian: normal; vertical-align: baseline;&quot;&gt;1&lt;/span&gt;&lt;/p&gt;&lt;/td&gt;&lt;td style=&quot;vertical-align:top;background-color:#ffeb84;padding:5pt 5pt 5pt 5pt;overflow:hidden;overflow-wrap:break-word;&quot;&gt;&lt;p style=&quot;line-height:1.38;margin-top:0pt;margin-bottom:0pt;&quot; dir=&quot;ltr&quot;&gt;&lt;span style=&quot;font-size: 11pt; font-family: Arial; background-color: transparent; font-variant-numeric: normal; font-variant-east-asian: normal; vertical-align: baseline;&quot;&gt;1&lt;/span&gt;&lt;/p&gt;&lt;/td&gt;&lt;td style=&quot;vertical-align:top;background-color:#ffeb84;padding:5pt 5pt 5pt 5pt;overflow:hidden;overflow-wrap:break-word;&quot;&gt;&lt;p style=&quot;line-height:1.38;margin-top:0pt;margin-bottom:0pt;&quot; dir=&quot;ltr&quot;&gt;&lt;span style=&quot;font-size: 11pt; font-family: Arial; background-color: transparent; font-variant-numeric: normal; font-variant-east-asian: normal; vertical-align: baseline;&quot;&gt;1&lt;/span&gt;&lt;/p&gt;&lt;/td&gt;&lt;td style=&quot;vertical-align:top;background-color:#ffeb84;padding:5pt 5pt 5pt 5pt;overflow:hidden;overflow-wrap:break-word;&quot;&gt;&lt;p style=&quot;line-height:1.38;margin-top:0pt;margin-bottom:0pt;&quot; dir=&quot;ltr&quot;&gt;&lt;span style=&quot;font-size: 11pt; font-family: Arial; background-color: transparent; font-variant-numeric: normal; font-variant-east-asian: normal; vertical-align: baseline;&quot;&gt;1&lt;/span&gt;&lt;/p&gt;&lt;/td&gt;&lt;td style=&quot;vertical-align:top;background-color:#ffeb84;padding:5pt 5pt 5pt 5pt;overflow:hidden;overflow-wrap:break-word;&quot;&gt;&lt;p style=&quot;line-height:1.38;margin-top:0pt;margin-bottom:0pt;&quot; dir=&quot;ltr&quot;&gt;&lt;span style=&quot;font-size: 11pt; font-family: Arial; background-color: transparent; font-variant-numeric: normal; font-variant-east-asian: normal; vertical-align: baseline;&quot;&gt;1&lt;/span&gt;&lt;/p&gt;&lt;/td&gt;&lt;td style=&quot;vertical-align:top;background-color:#ffeb84;padding:5pt 5pt 5pt 5pt;overflow:hidden;overflow-wrap:break-word;&quot;&gt;&lt;p style=&quot;line-height:1.38;margin-top:0pt;margin-bottom:0pt;&quot; dir=&quot;ltr&quot;&gt;&lt;span style=&quot;font-size: 11pt; font-family: Arial; background-color: transparent; font-variant-numeric: normal; font-variant-east-asian: normal; vertical-align: baseline;&quot;&gt;1&lt;/span&gt;&lt;/p&gt;&lt;/td&gt;&lt;/tr&gt;&lt;/tbody&gt;&lt;/table&gt;&lt;/div&gt;&lt;span id=&quot;docs-internal-guid-59ba4d94-7fff-0171-0414-f0e479a23561&quot;&gt;&lt;/span&gt;" style="rounded=0;whiteSpace=wrap;html=1;" vertex="1" parent="1">
          <mxGeometry x="1100" y="-4490" width="420" height="500" as="geometry" />
        </mxCell>
        <mxCell id="1S47sQh23CGtn13rSiRh-15" value="1. LEFT&lt;br&gt;2. RIGHT&lt;br&gt;3.UP&lt;br&gt;&lt;div style=&quot;&quot;&gt;&lt;span style=&quot;background-color: initial;&quot;&gt;4.DOWN&lt;/span&gt;&lt;/div&gt;" style="rounded=0;whiteSpace=wrap;html=1;align=left;" vertex="1" parent="1">
          <mxGeometry x="1820" y="-4330" width="120" height="60" as="geometry" />
        </mxCell>
      </root>
    </mxGraphModel>
  </diagram>
</mxfile>
